<svg viewBox="0 0 30 30" xmlns="http://www.w3.org/2000/svg" xmlns:xlink="http://www.w3.org/1999/xlink">
  <path d="M13.6321108,20.9477234 C13.8019274,21.1136627 14.0320921,21.2070465 14.2723147,21.2070465 C14.5123035,21.2070465 14.7424682,21.1138916 14.9122848,20.9477234 L18.1441804,17.785263 C18.497848,17.4391937 18.497848,16.8784332 18.1441804,16.5323639 C17.7907466,16.1865234 17.2174401,16.1865234 16.8640063,16.5323639 L14.2723147,19.0683746 L13.0906156,17.9120636 C12.736948,17.5662231 12.1638754,17.5662231 11.8102077,17.9120636 C11.456774,18.257904 11.456774,18.8188934 11.8102077,19.1649628 L13.6321108,20.9477234 Z"></path>
  <path d="M14.977311,25.7720947 C18.9399326,25.7720947 22.1636414,22.6174164 22.1636414,18.7399292 C22.1636414,14.862442 18.9399326,11.7079925 14.977311,11.7079925 C11.0144554,11.7079925 7.79074665,14.862442 7.79074665,18.7399292 C7.79074665,22.6174164 11.0146893,25.7720947 14.977311,25.7720947 Z M14.977311,13.4795379 C17.9416168,13.4795379 20.3531999,15.8393097 20.3531999,18.7399292 C20.3531999,21.6405487 17.9416168,24.0005493 14.977311,24.0005493 C12.0130053,24.0005493 9.60118826,21.6405487 9.60118826,18.7399292 C9.60118826,15.8393097 12.0130053,13.4795379 14.977311,13.4795379 Z"></path>
  <path d="M27.0265719,1.8862152 L25.375421,1.8862152 L25.375421,0.885772734 C25.375421,0.396652207 24.9700599,0 24.4702002,0 C23.9703406,0 23.5649794,0.396652207 23.5649794,0.885772734 L23.5649794,1.8862152 L21.7861153,1.8862152 L21.7861153,0.885772734 C21.7861153,0.396652207 21.3807541,0 20.8806605,0 C20.3808009,0 19.9754398,0.396652207 19.9754398,0.885772734 L19.9754398,1.8862152 L9.97918228,1.8862152 L9.97918228,0.885772734 C9.97918228,0.396652207 9.57382108,0 9.07372754,0 C8.5738679,0 8.16850671,0.396652207 8.16850671,0.885772734 L8.16850671,1.8862152 L6.38964257,1.8862152 L6.38964257,0.885772734 C6.38964257,0.396652207 5.98428144,0 5.4841879,0 C4.9843282,0 4.57896707,0.396652207 4.57896707,0.885772734 L4.57896707,1.8862152 L2.92758234,1.8862152 C1.31338886,1.8862152 2.84217094e-14,3.17138672 2.84217094e-14,4.75112918 L2.84217094e-14,27.1353149 C2.84217094e-14,28.7148285 1.31338886,30 2.92758234,30 L27.0265719,30 C28.6409993,30 29.9541542,28.7148285 29.9541542,27.1353149 L29.9541542,4.75112918 C29.9541542,3.17138672 28.6407653,1.8862152 27.0265719,1.8862152 Z M28.1434787,27.1353149 C28.1434787,27.7379608 27.6424495,28.2284546 27.0265719,28.2284546 L2.92758234,28.2284546 C2.31170473,28.2284546 1.81044162,27.7379608 1.81044162,27.1353149 L1.81044162,9.2518616 L28.1434787,9.2518616 L28.1434787,27.1353149 Z M1.81044162,4.75112918 C1.81044162,4.14825439 2.31170473,3.65798953 2.92758234,3.65798953 L4.57896707,3.65798953 L4.57896707,4.65843199 C4.57896707,5.14755246 4.9843282,5.54420473 5.4844218,5.54420473 C5.98428144,5.54420473 6.38964257,5.14755246 6.38964257,4.65843199 L6.38964257,3.65798953 L8.16850671,3.65798953 L8.16850671,4.65843199 C8.16850671,5.14755246 8.5738679,5.54420473 9.07396144,5.54420473 C9.57382108,5.54420473 9.97918228,5.14755246 9.97918228,4.65843199 L9.97918228,3.65798953 L19.9754398,3.65798953 L19.9754398,4.65843199 C19.9754398,5.14755246 20.3808009,5.54420473 20.8808945,5.54420473 C21.3807541,5.54420473 21.7861153,5.14755246 21.7861153,4.65843199 L21.7861153,3.65798953 L23.5649794,3.65798953 L23.5649794,4.65843199 C23.5649794,5.14755246 23.9703406,5.54420473 24.4702002,5.54420473 C24.9702938,5.54420473 25.375655,5.14755246 25.375655,4.65843199 L25.375655,3.65798953 L27.0265719,3.65798953 C27.6424495,3.65798953 28.1437126,4.14825439 28.1437126,4.75112918 L28.1437126,7.48008727 L1.81044162,7.48008727 L1.81044162,4.75112918 Z"></path>
</svg>
