<svg viewBox="0 0 36 36" xmlns="http://www.w3.org/2000/svg" xmlns:xlink="http://www.w3.org/1999/xlink">
    <path d="M18,-0.000100000001 C27.9250909,-0.000100000001 36,8.07480909 36,17.9999 C36,27.9239 27.9250909,35.9999 18,35.9999 C8.07490909,35.9999 0,27.9239 0,17.9999 C0,8.07480909 8.07490909,-0.000100000001 18,-0.000100000001 Z M18,34.4900818 C27.0927273,34.4900818 34.4901818,27.0926273 34.4901818,17.9999 C34.4901818,8.90608182 27.0927273,1.50862727 18,1.50862727 C8.90727273,1.50862727 1.50981818,8.90608182 1.50981818,17.9999 C1.50981818,27.0926273 8.90727273,34.4900818 18,34.4900818 Z M27.7131273,10.9914636 C28.0109455,10.7012818 28.4887636,10.7078273 28.7800364,11.0067364 C29.0713091,11.3056455 29.0647636,11.7823727 28.7658545,12.0736455 L15.4807636,25.0074636 C15.4338545,25.0543727 15.3749455,25.0805545 15.3193091,25.1121909 C15.2920364,25.1274636 15.2680364,25.1525545 15.2385818,25.1645545 C15.1480364,25.2016455 15.0509455,25.2212818 14.9549455,25.2212818 C14.8589455,25.2212818 14.7618545,25.2016455 14.6713091,25.1645545 C14.6418545,25.1525545 14.6178545,25.1274636 14.5905818,25.1121909 C14.5349455,25.0805545 14.4760364,25.0543727 14.4291273,25.0074636 L7.23458182,18.0038273 C6.93567273,17.7125545 6.92912727,17.2358273 7.21930909,16.9369182 C7.51058182,16.6380091 7.9884,16.6314636 8.28730909,16.9216455 L14.9549455,23.4125545 L27.7131273,10.9914636 Z"></path>
</svg>
