<svg xmlns="http://www.w3.org/2000/svg" viewBox="-0.5 -0.5 24 24"><path fill="none" stroke="currentColor" stroke-linecap="round" stroke-linejoin="round" stroke-width="1" d="M20.34541666666667 16.077c-0.06171666666666667 0.3297625 -0.23680416666666665 0.6275166666666667 -0.49497916666666664 0.8417041666666667 -0.258175 0.21428333333333333 -0.5830500000000001 0.3313916666666667 -0.9185625000000001 0.33129583333333334H2.45142625c-0.21122625 0.00009583333333333334 -0.41988416666666667 -0.04638333333333333 -0.6111195833333334 -0.13608333333333333 -0.19123541666666669 -0.0897 -0.3603525 -0.2205125 -0.495305 -0.38295 -0.13496208333333334 -0.16253333333333334 -0.23245333333333335 -0.3527625 -0.28553541666666665 -0.5572708333333334 -0.0530725 -0.2044125 -0.060442083333333334 -0.418025 -0.021581666666666666 -0.6256958333333333l1.6176666666666666 -8.625c0.06169750000000001 -0.3295708333333333 0.23666041666666668 -0.6272099999999999 0.494615 -0.8414166666666667 0.2579545833333334 -0.21420666666666668 0.5826762500000001 -0.33149708333333333 0.9179683333333333 -0.33158333333333334H20.551458333333333c0.21112083333333334 0.0000575 0.41975 0.04662291666666667 0.6108416666666666 0.13639958333333335 0.19109166666666666 0.08978625 0.3601416666666667 0.22056041666666668 0.49497916666666664 0.38304583333333336 0.1348375 0.16247583333333335 0.23220416666666666 0.35267625 0.28529583333333336 0.55706 0.05299583333333334 0.20438375 0.060375000000000005 0.41794833333333337 0.02146666666666667 0.6254945833333333l-1.6186250000000002 8.625Z"></path><path fill="none" stroke="currentColor" stroke-linecap="round" stroke-linejoin="round" stroke-width="1" d="M21.962125000000004 7.452 11.5 11.5 2.6555416666666667 6.923"></path></svg>
