<svg viewBox="0 0 512 320" xmlns="http://www.w3.org/2000/svg" xmlns:xlink="http://www.w3.org/1999/xlink">
    <path d="M404.267,219.41 C394.219,198.461 358.272,169.383 323.542,141.287 C304.171,125.628 285.867,110.823 274.198,99.154 C271.275,96.21 266.902,95.271 263.041,96.658 C255.852,99.261 251.414,101.266 247.916,102.823 C242.583,105.212 240.791,106.023 233.601,106.748 C230.422,107.068 227.564,108.775 225.793,111.42 C210.71,133.969 195.094,132.049 184.662,128.551 C181.334,127.442 180.737,126.012 180.417,124.647 C178.177,115.282 189.42,93.479 203.99,78.908 C238.657,44.22 256.534,35.537 294.294,52.412 C337.131,71.569 380.054,86.567 380.481,86.716 C386.092,88.657 392.129,85.713 394.07,80.145 C395.99,74.577 393.067,68.497 387.499,66.556 C387.072,66.407 345.003,51.708 303.019,32.913 C254.102,11.046 227.264,25.446 188.928,63.804 C174.336,78.396 154.517,107.921 159.637,129.575 C161.834,138.791 168.32,145.618 177.962,148.796 C202.133,156.775 224.191,149.137 240.618,127.335 C247.402,126.29 251.093,124.754 256.639,122.258 C258.644,121.362 260.991,120.317 264.106,119.058 C276.309,130.514 292.778,143.847 310.122,157.863 C341.482,183.228 377.045,211.986 385.045,228.626 C388.992,236.839 384.746,242.194 381.866,244.647 C377.642,248.274 371.861,249.426 368.725,247.228 C365.269,244.86 360.768,244.711 357.205,246.844 C353.621,248.977 351.616,253.009 352.064,257.148 C352.789,263.932 346.581,267.815 343.893,269.159 C337.066,272.615 329.941,272.018 327.274,269.543 C324.287,266.77 319.999,265.959 316.202,267.367 C312.405,268.796 309.759,272.295 309.375,276.348 C308.735,283.345 303.551,290.065 296.788,292.689 C293.524,293.926 288.788,294.673 284.543,290.79 C281.898,288.401 278.228,287.483 274.794,288.315 C271.317,289.168 268.522,291.686 267.306,295.035 C266.901,296.102 265.983,298.662 255.999,298.662 C248.895,298.662 236.116,293.862 229.866,289.723 C222.378,284.795 175.423,249.766 134.869,215.803 C129.173,211.003 119.317,200.72 110.613,191.632 C102.89,183.568 95.829,176.251 92.202,173.179 C87.658,169.339 80.938,169.915 77.162,174.438 C73.365,178.939 73.919,185.681 78.421,189.478 C81.728,192.273 88.128,199.035 95.189,206.395 C104.704,216.336 114.538,226.619 121.152,232.166 C160.875,265.425 208.619,301.329 218.133,307.579 C225.984,312.742 242.901,319.995 256,319.995 C266.517,319.995 274.603,317.584 280.213,312.87 C287.722,315.793 296.256,315.814 304.469,312.614 C314.176,308.859 322.154,301.286 326.677,292.113 C335.082,293.905 344.704,292.646 353.45,288.252 C362.005,283.943 368.191,277.351 371.263,269.649 C379.754,270.097 388.5,267.089 395.732,260.881 C407.979,250.407 411.349,234.109 404.267,219.41 Z" id="Path"></path>
    <path d="M213.333,42.663 L117.333,42.663 C111.445,42.663 106.666,47.442 106.666,53.33 C106.666,59.218 111.445,63.997 117.333,63.997 L213.333,63.997 C219.221,63.997 224,59.218 224,53.33 C224,47.442 219.221,42.663 213.333,42.663 Z" id="Path"></path>
    <path d="M435.52,196.711 C432.213,191.826 425.6,190.482 420.715,193.81 L389.526,214.759 C384.641,218.044 383.339,224.679 386.625,229.564 C388.694,232.615 392.065,234.279 395.5,234.279 C397.527,234.279 399.596,233.703 401.431,232.466 L432.62,211.517 C437.504,208.231 438.805,201.597 435.52,196.711 Z" id="Path"></path>
    <path d="M369.301,247.613 C361.664,241.597 327.509,206.632 306.389,184.616 C302.314,180.349 295.552,180.2 291.306,184.296 C287.039,188.371 286.911,195.133 290.986,199.379 C296.469,205.096 344.831,255.507 356.074,264.382 C358.015,265.918 360.362,266.665 362.666,266.665 C365.802,266.665 368.938,265.257 371.071,262.59 C374.72,257.981 373.931,251.261 369.301,247.613 Z" id="Path"></path>
    <path d="M326.677,269.01 C313.898,258.791 281.792,224.679 274.538,216.786 C270.527,212.434 263.807,212.178 259.455,216.146 C255.124,220.135 254.826,226.898 258.815,231.229 C259.199,231.634 297.514,273 313.343,285.672 C315.306,287.229 317.674,287.997 319.999,287.997 C323.114,287.997 326.228,286.61 328.34,284.008 C332.011,279.399 331.264,272.679 326.677,269.01 Z"></path>
    <path d="M284.224,290.493 C269.013,277.672 237.888,244.541 231.808,238.034 C227.776,233.725 221.013,233.49 216.725,237.522 C212.416,241.554 212.202,248.295 216.213,252.605 C224.96,261.97 254.741,293.544 270.464,306.813 C272.469,308.498 274.901,309.33 277.333,309.33 C280.362,309.33 283.392,308.029 285.504,305.533 C289.301,301.01 288.725,294.29 284.224,290.493 Z"></path>
    <path d="M124.672,24.253 C106.389,6.93 33.28,1.319 11.307,0.018 C8.278,-0.131 5.483,0.871 3.35,2.898 C1.216,4.903 0,7.719 0,10.663 L0,202.663 C0,208.551 4.779,213.33 10.667,213.33 L74.667,213.33 C79.275,213.33 83.371,210.365 84.8,205.97 C86.357,201.191 123.115,88.381 127.957,32.914 C128.235,29.671 127.04,26.471 124.672,24.253 Z M66.88,191.997 L21.333,191.997 L21.333,22.098 C55.616,24.807 92.608,30.695 106.048,37.223 C100.395,83.943 74.816,166.951 66.88,191.997 Z"></path>
    <path d="M501.333,21.33 C417.578,21.33 371.114,42.77 369.173,43.666 C366.4,44.967 364.33,47.378 363.477,50.301 C362.624,53.224 363.05,56.36 364.65,58.962 C377.834,80.189 419.114,198.077 427.05,226.834 C428.33,231.463 432.533,234.663 437.333,234.663 L501.333,234.663 C507.221,234.663 512,229.884 512,223.996 L512,31.996 C512,26.087 507.221,21.33 501.333,21.33 Z M490.667,213.33 L445.312,213.33 C435.2,180.391 405.333,94.503 388.672,59.005 C404.949,53.48 439.915,43.986 490.667,42.792 L490.667,213.33 Z"></path>
</svg>
