<?xml version="1.0" encoding="UTF-8" standalone="no"?>
<!-- Created with Inkscape (http://www.inkscape.org/) -->

<svg
   version="1.1"
   width="1080.0005"
   height="306"
   viewBox="0 0 1080 305.99986"
   id="svg10"
   xmlns="http://www.w3.org/2000/svg"
   xmlns:svg="http://www.w3.org/2000/svg">
  <defs
     id="defs1" />
  <path
     d="M 1080.0005,227.25049 V 76.882741 l -2.2125,-2.2125 h -26.535 l -2.2125,2.2125 V 227.25049 l 2.2125,2.21175 h 26.535 l 2.2125,-2.21175"
     style="stroke-width:0.25"
     id="path1" />
  <path
     d="m 1039.048,174.18024 c 0,-35.38 -22.115,-57.495 -55.28251,-57.495 -33.17,0 -55.2825,22.115 -55.2825,57.495 0,35.37975 22.1125,57.492 55.2825,57.492 33.16751,0 55.28251,-22.11225 55.28251,-57.492 m -30.96,0 c 0,19.9 -8.84501,30.9575 -24.32251,30.9575 -15.48,0 -24.325,-11.0575 -24.325,-30.9575 0,-19.9025 8.845,-30.9575 24.325,-30.9575 15.4775,0 24.32251,11.055 24.32251,30.9575"
     style="stroke-width:0.25"
     id="path2" />
  <path
     d="m 923.53049,174.18024 c 0,-35.38 -22.115,-57.495 -55.2825,-57.495 -33.17,0 -55.2825,22.115 -55.2825,57.495 0,35.37975 22.1125,57.492 55.2825,57.492 33.1675,0 55.2825,-22.11225 55.2825,-57.492 m -30.96,0 c 0,19.9 -8.845,30.9575 -24.3225,30.9575 -15.48,0 -24.325,-11.0575 -24.325,-30.9575 0,-19.9025 8.845,-30.9575 24.325,-30.9575 15.4775,0 24.3225,11.055 24.3225,30.9575"
     style="stroke-width:0.25"
     id="path3" />
  <path
     d="m 803.74549,227.25049 v -66.34025 c 0,-26.535 -15.48,-44.225 -42.0175,-44.225 -15.4775,0 -24.3225,6.635 -28.745,11.0575 h -2.21 V 76.882741 l -2.2125,-2.2125 h -26.535 l -2.2125,2.2125 V 227.25049 l 2.2125,2.21175 h 26.535 l 2.2125,-2.21175 v -55.28275 c 0,-19.9025 8.845,-28.7475 24.3225,-28.7475 13.27,0 17.69,8.845 17.69,19.9025 v 64.12775 l 2.2125,2.21175 h 26.535 l 2.2125,-2.21175"
     style="stroke-width:0.25"
     id="path4" />
  <path
     d="m 615.41049,174.17774 c 0,-19.9 8.845,-30.9575 24.325,-30.9575 11.055,0 17.69,4.4225 19.9,11.0575 l 2.2125,2.21 h 26.535 l 2.21,-2.21 c -4.4225,-26.535 -26.535,-37.5925 -50.8575,-37.5925 -33.1725,0 -55.285,22.1125 -55.285,57.4925 0,35.38225 22.1125,57.4945 55.285,57.4945 24.3225,0 46.435,-11.05475 50.8575,-37.592 l -2.21,-2.21 h -26.535 l -2.2125,2.21 c -2.21,6.635 -8.845,11.0575 -19.9,11.0575 -15.48,0 -24.325,-11.0575 -24.325,-30.96"
     style="stroke-width:0.25"
     id="path5" />
  <path
     d="m 578.19549,185.23524 c 0,-30.9575 -24.325,-44.225 -55.2825,-48.6475 -30.9575,-4.4225 -39.8025,-8.845 -39.8025,-22.1125 0,-8.8475 6.6325,-15.479999 26.535,-15.479999 24.325,0 30.9575,6.632499 30.9575,19.902499 l 2.2125,2.21 h 26.535 l 2.2125,-2.21 c 0,-26.537499 -17.6925,-46.437499 -59.705,-46.437499 -42.015,0 -59.7075,19.9 -59.7075,42.014999 0,30.9575 24.325,42.0125 55.285,46.435 30.9575,4.4225 39.8025,8.845 39.8025,24.325 0,13.2675 -11.0575,19.9025 -30.9575,19.9025 -26.5375,0 -35.3825,-8.845 -35.3825,-24.325 l -2.21,-2.2125 h -26.5375 l -2.21,2.2125 c 0,28.74725 19.9025,50.8595 64.1275,50.8595 46.4375,0 64.1275,-22.11225 64.1275,-46.437"
     style="stroke-width:0.25"
     id="path6" />
  <path
     d="m 385.81549,121.10774 c 0,-30.957499 -22.115,-46.437499 -53.0725,-46.437499 h -72.9725 l -2.2125,2.2125 V 227.25049 l 2.2125,2.21175 h 26.535 l 2.2125,-2.21175 v -57.49275 l 2.2125,-2.2125 h 22.1125 l 4.4225,2.2125 44.225,57.49275 4.4225,2.21175 h 13.2675 l 2.2125,-2.21175 v -22.11275 l -28.7475,-37.5925 v -2.21 c 17.69,-4.4225 33.17,-19.9025 33.17,-44.2275 m -30.96,0 c 0,15.48 -8.845,19.9025 -22.1125,19.9025 h -42.0125 l -2.2125,-2.21 v -35.3825 l 2.2125,-2.2125 h 42.0125 c 13.2675,0 22.1125,4.4225 22.1125,19.9025"
     style="stroke-width:0.25"
     id="path7" />
  <path
     d="m 244.09299,227.25049 v -22.11275 l -2.2125,-2.2125 h -68.5475 l -2.2125,-2.21 V 76.882741 l -2.2125,-2.2125 h -26.535 l -2.2125,2.2125 V 227.25049 l 2.2125,2.21175 h 99.5075 l 2.2125,-2.21175"
     style="stroke-width:0.25"
     id="path8" />
  <path
     d="M 108.89799,227.25049 V 76.882741 l -2.2125,-2.2125 H 80.149485 l -2.211,2.2125 V 227.25049 l 2.211,2.21175 h 26.536005 l 2.2125,-2.21175"
     style="stroke-width:0.25"
     id="path9" />
  <path
     d="M 2.1857852,2.410791e-4 -1.484375e-5,2.1827411 V 302.91249 L 2.1142852,305.03274 H 763.13299 l 2.2625,-2.26475 v -23.998 l -2.2475,-2.24725 H 30.890285 v -0.005 l -2.3418,-2.34775 -0.04,0.04 V 30.759991 l 2.249,-2.2525 H 211.67399 l 2.2425,-2.2425 V 2.1874911 l -2.19,-2.1875000208984 H 2.1842852"
     style="stroke-width:0.25"
     id="path10" />
</svg>
