<svg
   viewBox="0 0 5.9697142 4.8286028"
   xmlns="http://www.w3.org/2000/svg"
   xmlns:svg="http://www.w3.org/2000/svg">
  <g fill="none" stroke="currentColor" stroke-linejoin="round" stroke-width=".25"
     transform="translate(-82.653489,-120.90526)">
    <path
       d="m 85.257978,124.84094 h 0.76068 m 2.43947,0.22592 c 0.0257,0.0579 0.0366,0.12133 0.0316,0.18449 -0.005,0.0632 -0.0257,0.12409 -0.0602,0.17721 -0.0345,0.0532 -0.0818,0.0968 -0.13751,0.12701 -0.0557,0.0302 -0.11805,0.046 -0.18144,0.046 h -4.94439 c -0.0634,0 -0.12574,-0.0158 -0.18143,-0.046 -0.0557,-0.0302 -0.10297,-0.0739 -0.1375,-0.12701 -0.0345,-0.0531 -0.0553,-0.11402 -0.0603,-0.17721 -0.005,-0.0632 0.006,-0.12658 0.0316,-0.18449 l 0.5378,-1.17677 h 4.56405 z m -0.53778,-1.17677 v -2.4722 c 0,-0.10087 -0.0401,-0.19761 -0.11139,-0.26894 -0.0713,-0.0713 -0.16808,-0.1114 -0.26895,-0.1114 h -3.80338 c -0.10087,0 -0.19762,0.0401 -0.26894,0.1114 -0.0713,0.0713 -0.1114,0.16807 -0.1114,0.26894 v 2.4722 z" />
  </g>
</svg>
