<svg viewBox="0 0 512 512" xmlns="http://www.w3.org/2000/svg" xmlns:xlink="http://www.w3.org/1999/xlink">
    <path d="M482,334.582031 L482,128.613281 L502.25,121.050781 C508.101562,118.867188 511.988281,113.277344 512.000027,107.027344 C512.011719,100.777344 508.144531,95.175781 502.300781,92.96875 L261.300781,1.96875 C257.882812,0.675781 254.117188,0.675781 250.703125,1.96875 L9.703125,92.96875 C3.851562,95.175781 -0.0117188,100.777344 -2.65865823e-05,107.027344 C0.0117188,113.277344 3.898438,118.867188 9.753906,121.050781 L91,151.394531 L91,260.75 C91,266.882812 94.734375,272.398438 100.429688,274.675781 C150.128906,294.558594 202.472656,304.636719 256,304.636719 C309.527344,304.636719 361.871094,294.558594 411.570312,274.675781 C417.265625,272.398438 421,266.882812 421,260.75 L421,151.394531 L452,139.816406 L452,334.582031 C434.542969,340.773438 422,357.445312 422,377 C422,388.515625 426.355469,399.03125 433.496094,407 C426.355469,414.96875 422,425.484375 422,437 L422,498 C422,506.285156 428.714844,513 437,513 L497,513 C505.285156,513 512.000027,506.285156 512.000027,498 L512.000027,437 C512.000027,425.484375 507.644531,414.96875 500.503906,407 C507.648438,399.03125 512.000027,388.515625 512.000027,377 C512.000027,357.445312 499.460938,340.773438 482,334.582031 Z M256,32.035156 L454.332031,106.921875 C445.550781,110.203125 264.746094,177.722656 256,180.988281 C249.394531,178.523438 71.902344,112.238281 57.667969,106.921875 L256,32.035156 Z M391,250.457031 C303.554688,282.867188 208.445312,282.867188 121,250.457031 L121,162.597656 L250.753906,211.054688 C254.136719,212.316406 257.863281,212.316406 261.25,211.054688 L391,162.597656 L391,250.457031 Z M467,362 C475.269531,362 482,368.730469 482,377 C482,385.273438 475.269531,392 467,392 C458.730469,392 452,385.273438 452,377 C452,368.730469 458.730469,362 467,362 Z M482,483 L452,483 L452,437 C452,428.730469 458.730469,422 467,422 C475.269531,422 482,428.730469 482,437 L482,483 Z"></path>
</svg>
