<svg viewBox="0 0 406 512" xmlns="http://www.w3.org/2000/svg" xmlns:xlink="http://www.w3.org/1999/xlink">
    <path d="M314.061,215.37 L203,296.149 L91.939,215.37 L79.395,232.629 L196.728,317.962 C198.551,319.287 200.747,319.999001 203,319.999001 C205.253,319.999001 207.449,319.286 209.272,317.962 L326.605,232.629 L314.061,215.37 Z" id="Path"></path>
    <rect id="Rectangle" x="64.333" y="64" width="106.667" height="21.333"></rect>
    <rect id="Rectangle" x="64.333" y="106.667" width="21.333" height="21.333"></rect>
    <rect id="Rectangle" x="107" y="106.667" width="21.333" height="21.333"></rect>
    <path d="M402.541,88.459 L317.208,3.125 C315.208,1.125 312.495,0 309.667,0 L32.333,0 C14.66,0 0.333,14.327 0.333,32 L0.333,480 C0.333,497.673 14.66,512 32.333,512 L373.666,512 C391.339,512 405.666,497.673 405.666,480 L405.666,96 C405.666,93.171 404.542,90.459 402.541,88.459 Z M384.333,480 C384.333,485.891 379.557,490.667 373.666,490.667 L32.333,490.667 C26.442,490.667 21.666,485.891 21.666,480 L21.666,32 C21.666,26.109 26.442,21.333 32.333,21.333 L305.25,21.333 L384.333,100.416 L384.333,480 Z"></path>
    <path d="M331,85.333 C325.109,85.333 320.333,80.557 320.333,74.666 L320.333,10.666 L299,10.666 L299,74.666 C299,92.339 313.327,106.666 331,106.666 L352.333,106.666 L352.333,85.333 L331,85.333 Z"></path>
    <path d="M309.667,202.667 L96.333,202.667 C78.66,202.667 64.333,216.994 64.333,234.667 L64.333,384 C64.333,401.673 78.66,416 96.333,416 L309.666,416 C327.339,416 341.666,401.673 341.666,384 L341.666,234.667 C341.666,216.994 327.34,202.667 309.667,202.667 Z M320.333,384 C320.333,389.891 315.557,394.667 309.666,394.667 L96.333,394.667 C90.442,394.667 85.666,389.891 85.666,384 L85.666,234.667 C85.666,228.776 90.442,224 96.333,224 L309.666,224 C315.557,224 320.333,228.776 320.333,234.667 L320.333,384 Z"></path>
</svg>
