<svg xmlns="http://www.w3.org/2000/svg" viewBox="-0.5 -0.5 24 24"><path fill="none" stroke="currentColor" stroke-linecap="round" stroke-linejoin="round" d="M4.105979166666668 1.4268529166666668h-0.010541666666666666c-0.95820875 0.21289375 -1.81513125 0.7463116666666667 -2.4291737500000004 1.5121158333333333 -0.6140329166666667 0.7658041666666667 -0.9484500416666667 1.7181766666666667 -0.9479881250000001 2.699759166666667v0.8529166666666668c0 0.38124416666666666 0.15145020833333334 0.7468866666666667 0.421029375 1.0164658333333334 0.26958875 0.26957916666666665 0.6352216666666667 0.4210341666666667 1.0164658333333334 0.4210341666666667h3.59375c0.38125375000000006 0 0.7468866666666667 -0.151455 1.0164658333333334 -0.4210341666666667 0.26958875 -0.26957916666666665 0.4210341666666667 -0.6352216666666667 0.4210341666666667 -1.0164658333333334 0 -0.38124416666666666 0.151455 -0.7468866666666667 0.4210341666666667 -1.0164658333333334 0.26958875 -0.26957916666666665 0.6352216666666667 -0.4210341666666667 1.0164754166666667 -0.4210341666666667h5.749990416666667c0.381225 0 0.7469250000000001 0.151455 1.0165041666666668 0.4210341666666667s0.42099583333333335 0.6352216666666667 0.42099583333333335 1.0164658333333334c0 0.38124416666666666 0.15141666666666667 0.7468866666666667 0.42099583333333335 1.0164658333333334 0.26957916666666665 0.26957916666666665 0.6352791666666667 0.4210341666666667 1.0165041666666668 0.4210341666666667h3.59375c0.381225 0 0.7469250000000001 -0.151455 1.0165041666666668 -0.4210341666666667s0.42099583333333335 -0.6352216666666667 0.42099583333333335 -1.0164658333333334v-0.8529166666666668c0 -0.9812566666666667 -0.3345541666666667 -1.9331787500000002 -0.9485583333333334 -2.6985900000000003 -0.6140041666666667 -0.76541125 -1.4707541666666666 -1.2985416666666667 -2.428608333333333 -1.5113683333333334h-0.010541666666666666c-4.883570833333334 -0.9460474999999999 -9.903263333333333 -0.9466982083333334 -14.787083333333333 -0.0019166666666666668Z" stroke-width="1"></path><path fill="none" stroke="currentColor" stroke-linecap="round" stroke-linejoin="round" d="M11.789704166666668 10.78125h-0.5797916666666667c-2.1023341666666666 -0.00009583333333333334 -4.13232375 0.7676250000000001 -5.708417916666667 2.1589333333333336 -1.5760941666666668 1.3914041666666668 -2.5897520833333334 3.310466666666667 -2.850437916666667 5.396566666666667l-0.089125 0.713c-0.05055208333333333 0.4045125 -0.014499583333333333 0.8151583333333334 0.10576166666666667 1.204625 0.12027083333333334 0.3895625 0.322 0.7490333333333333 0.5917995833333334 1.0546458333333335 0.2698091666666667 0.3056125 0.6015170833333333 0.5503708333333334 0.9731204166666667 0.7179833333333333 0.37160333333333334 0.1676125 0.77461125 0.25424583333333334 1.1822766666666669 0.25424583333333334H17.58570416666667c0.40777083333333336 -0.00019166666666666667 0.8108458333333334 -0.0871125 1.1824875000000001 -0.25501250000000003 0.37154583333333335 -0.16799583333333334 0.703225 -0.41294583333333335 0.9728041666666666 -0.7188458333333334 0.269675 -0.3059 0.4711166666666667 -0.6656583333333334 0.5911000000000001 -1.0554125 0.11998333333333334 -0.3897541666666667 0.15563333333333332 -0.8004958333333334 0.10465 -1.2051041666666669l-0.089125 -0.713c-0.2613375 -2.0854291666666667 -1.2750625 -4.003725 -2.8509458333333333 -5.3943625 -1.5757875000000001 -1.3907333333333334 -3.6052500000000003 -2.1582625 -5.706970833333333 -2.1582625Z" stroke-width="1"></path><path fill="none" stroke="currentColor" stroke-linecap="round" stroke-linejoin="round" d="M9.341172083333333 10.984416666666666V8.625" stroke-width="1"></path><path fill="none" stroke="currentColor" stroke-linecap="round" stroke-linejoin="round" d="M13.6536625 10.984416666666666V8.625" stroke-width="1"></path><path fill="none" stroke="currentColor" stroke-linecap="round" stroke-linejoin="round" d="M8.622422083333333 16.53125c0 0.76245 0.30290041666666667 1.4937541666666667 0.8420683333333334 2.0329125 0.5391679166666667 0.5391583333333333 1.2704720833333334 0.8420875000000001 2.0329220833333332 0.8420875000000001 0.7625458333333334 0 1.4937541666666667 -0.3029291666666667 2.0329125 -0.8420875000000001 0.5391583333333333 -0.5391583333333333 0.8420875000000001 -1.2704625 0.8420875000000001 -2.0329125 0 -0.76245 -0.3029291666666667 -1.4937541666666667 -0.8420875000000001 -2.0329125 -0.5391583333333333 -0.5391583333333333 -1.2703666666666666 -0.8420875000000001 -2.0329125 -0.8420875000000001 -0.76245 0 -1.4937541666666667 0.3029291666666667 -2.0329220833333332 0.8420875000000001 -0.5391679166666667 0.5391583333333333 -0.8420683333333334 1.2704625 -0.8420683333333334 2.0329125Z" stroke-width="1"></path></svg>
