<svg width="24" height="24" viewBox="0 0 24 24" fill="none" xmlns="http://www.w3.org/2000/svg">
  <path fill-rule="evenodd" clip-rule="evenodd"
    d="M4.81802 15.818C5.66193 14.9741 6.80653 14.5 8 14.5H16C17.1935 14.5 18.3381 14.9741 19.182 15.818C20.0259 16.6619 20.5 17.8065 20.5 19V21.5H19.5V19C19.5 18.0717 19.1313 17.1815 18.4749 16.5251C17.8185 15.8687 16.9283 15.5 16 15.5H8C7.07174 15.5 6.1815 15.8687 5.52513 16.5251C4.86875 17.1815 4.5 18.0717 4.5 19V21.5H3.5V19C3.5 17.8065 3.97411 16.6619 4.81802 15.818Z" />
  <path fill-rule="evenodd" clip-rule="evenodd"
    d="M12 3.5C10.067 3.5 8.5 5.067 8.5 7C8.5 8.933 10.067 10.5 12 10.5C13.933 10.5 15.5 8.933 15.5 7C15.5 5.067 13.933 3.5 12 3.5ZM7.5 7C7.5 4.51472 9.51472 2.5 12 2.5C14.4853 2.5 16.5 4.51472 16.5 7C16.5 9.48528 14.4853 11.5 12 11.5C9.51472 11.5 7.5 9.48528 7.5 7Z" />
</svg>
