<svg viewBox="0 0 225 227" xmlns="http://www.w3.org/2000/svg" xmlns:xlink="http://www.w3.org/1999/xlink">
    <path d="M225,43.425 L225,144.726 C225,168.711 205.768,188.174 181.783,188.174 L65.066,188.174 C62.784,188.174 60.905,188.161 59.333,188.128 C57.686,188.094 55.832,188.081 55.109,188.161 C54.356,188.661 52.51,190.352 50.731,191.991 C50.026,192.64 49.228,193.354 48.367,194.14 L15.345,224.238 C12.711,226.641 8.814,227.263 5.552,225.825 C2.29,224.386 0,221.156 0,217.591 L0,122.174 L0,104.174 L0,43.425 C0,19.439 19.885,0.174 43.871,0.174 L181.784,0.174 C205.768,0.174 225,19.439 225,43.425 Z M207,43.425 C207,29.364 195.843,18.174 181.783,18.174 L43.871,18.174 C29.81,18.174 18,29.364 18,43.425 L18,113.258 L18,197.192 L36.095,180.839 C36.933,180.074 37.872,179.374 38.557,178.742 C46.82,171.128 48.934,169.911 59.712,170.133 C61.182,170.164 62.933,170.175 65.066,170.175 L181.783,170.175 C195.843,170.175 207,158.787 207,144.727 L207,43.425 Z"></path>
</svg>
