<svg xmlns="http://www.w3.org/2000/svg" viewBox="0 0 430 190">
  <polygon points="229.85 167.66 18.73 167.66 18.73 167.66 17.31 166.23 17.29 166.26 17.29 18.65 18.65 17.29 128.34 17.29 129.7 15.93 129.7 1.33 128.37 0 1.32 0 0 1.32 0 183.66 1.28 184.94 229.84 184.94 231.22 183.57 231.21 169.02 229.85 167.66"/><polygon points="103.75 121.7 103.75 46.62 102.41 45.27 86.32 45.27 84.98 46.62 84.98 137.78 86.32 139.13 146.66 139.13 148 137.78 148 124.38 146.66 123.04 105.09 123.04 103.75 121.7"/><path d="M216.26,102.65C227,100,236.37,90.58,236.37,75.83c0-18.77-13.4-28.15-32.17-28.15H160L158.61,49v91.17l1.34,1.34H176l1.34-1.34V105.33l1.34-1.34h13.41l2.68,1.34,26.82,34.86,2.68,1.34h8l1.34-1.34V126.78L216.26,104ZM204.2,87.9H178.72l-1.34-1.34V65.11l1.34-1.34H204.2c8,0,13.4,2.68,13.4,12.06S212.24,87.9,204.2,87.9Z" transform="translate(-2.45 -2.4)"/><polygon points="47.25 46.62 47.25 137.78 48.59 139.13 64.68 139.13 66.03 137.78 66.03 46.62 64.68 45.27 48.59 45.27 47.25 46.62"/><path d="M270.61,62.09H254.17l-1.37-1.37V47l1.37-1.37h16.44L272,47V60.72Zm0,79.49H254.17l-1.37-1.37V74.42l1.37-1.37h16.44L272,74.42v65.79Z" transform="translate(-2.45 -2.4)"/><path d="M347.36,112.8,346,114.17H303.51l-1.38,1.37c0,2.74,2.75,11,13.71,11,4.11,0,8.22-1.37,9.59-4.11L326.8,121h16.45l1.37,1.37c-1.37,8.23-8.22,20.56-28.78,20.56-23.3,0-34.26-16.45-34.26-35.63s11-35.64,32.89-35.64,32.89,16.45,32.89,35.64ZM326.8,99.09c0-1.37-1.37-11-12.33-11s-12.34,9.59-12.34,11l1.38,1.37h21.92Z" transform="translate(-2.45 -2.4)"/><path d="M266.51,187.27h-2.07l-.23-.23-1.15-3-.46-.23h-5.76l-.46.23-1.15,3-.23.23h-2.07l-.23-.23v-2.3l5.3-13.35.22-.23h3l.23.23,5.29,13.35V187Zm-6.67-12h-.23l-2.08,5.53.23.23h3.92l.23-.23Z" transform="translate(-2.45 -2.4)"/><path d="M271.67,187.27h-2.76l-.23-.23V171.39l.23-.23h2.76l.23.23V187Z" transform="translate(-2.45 -2.4)"/><path d="M274.52,175.76h2.77l.23.23v6.68c0,1.15.46,2.07,1.84,2.07,1.61,0,2.3-1.15,2.3-2.76v-6l.23-.23h2.76l.23.23v11l-.23.23h-2.53l-.23-.23-.23-.69h-.23a3.12,3.12,0,0,1-2.76,1.15c-2.77,0-4.38-1.84-4.38-4.6V176Z" transform="translate(-2.45 -2.4)"/><path d="M304.71,187.27h-2.77l-.23-.23v-6.67c0-1.16-.46-2.08-1.84-2.08s-2.07.92-2.07,2.54V187l-.23.23h-2.76l-.23-.23v-6.67c0-1.16-.47-2.08-1.85-2.08s-2.07.92-2.07,2.54V187l-.23.23h-2.76l-.23-.23V176l.23-.23h2.53l.23.23.23.69h.23a3.12,3.12,0,0,1,2.76-1.15,3.62,3.62,0,0,1,3.23,1.61h.23a3.89,3.89,0,0,1,3.45-1.61c2.77,0,4.38,1.61,4.38,4.61V187Z" transform="translate(-2.45 -2.4)"/><path d="M318,187.27h-2.76L315,187v-6.67c0-1.16-.46-2.08-1.84-2.08-1.61,0-2.54.92-2.54,3V187l-.23.23h-2.76l-.23-.23V176l.23-.23h2.53l.23.23.23.69h.23a4.1,4.1,0,0,1,3-1.15c2.76,0,4.37,1.84,4.37,4.61V187Z" transform="translate(-2.45 -2.4)"/><path d="M323.62,173.92h-2.77l-.23-.23v-2.3l.23-.23h2.77l.23.23v2.3Zm0,13.35h-2.77l-.23-.23V176l.23-.23h2.77l.23.23v11Z" transform="translate(-2.45 -2.4)"/><path d="M350.09,187.27h-2.76l-.23-.23v-9h-.23l-3.68,9-.23.23h-2.54l-.23-.23-3.68-9h-.23v9l-.23.23h-2.76l-.23-.23V171.39l.23-.23h3.45l.23.23,4.61,11.28h.23l4.6-11.28.23-.23h3.45l.24.23V187Z" transform="translate(-2.45 -2.4)"/><path d="M362.67,187.27h-2.53l-.23-.23-.23-.46h-.23a3.77,3.77,0,0,1-2.54.92c-2.53,0-4.14-1.38-4.14-3.68,0-3.45,3.22-3.92,5.07-3.92a5.4,5.4,0,0,1,1.61.24l.23-.24v-.23c0-1.15-.23-1.38-1.62-1.38-.69,0-1.38,0-1.61.69l-.23.23h-2.76l-.23-.23c0-1.38,1.15-3.45,4.83-3.45s4.84,1.84,4.84,5.3V187Zm-3.22-4.83a3.36,3.36,0,0,0-1.39-.23q-2.07,0-2.07,1.38c0,.69.46,1.15,1.61,1.15s2.08-.69,2.08-1.61v-.46Z" transform="translate(-2.45 -2.4)"/><path d="M376.17,186.12c0,4.15-2.53,6-5.75,6-2.76,0-4.61-1.38-4.84-3.46l.23-.23h2.77l.23.23c.23.47.69.7,1.61.7,1.61,0,2.53-.93,2.53-3h-.23a3.87,3.87,0,0,1-3,1.15c-2.76,0-5.07-2.3-5.07-6s2.31-6,5.07-6a3.87,3.87,0,0,1,3,1.15H373l.23-.69.23-.23H376l.22.23Zm-5.75-1.38c1.84,0,2.53-1.38,2.53-3.22s-.69-3.23-2.53-3.23-2.53,1.38-2.53,3.23S368.58,184.74,370.42,184.74Z" transform="translate(-2.45 -2.4)"/><path d="M388,187.27H385.5l-.23-.23-.23-.46h-.24a3.76,3.76,0,0,1-2.53.92c-2.53,0-4.14-1.38-4.14-3.68,0-3.45,3.22-3.92,5.06-3.92a5.4,5.4,0,0,1,1.61.24l.24-.24v-.23c0-1.15-.24-1.38-1.62-1.38-.69,0-1.38,0-1.61.69l-.23.23h-2.76l-.23-.23c0-1.38,1.15-3.45,4.83-3.45s4.84,1.84,4.84,5.3V187Zm-3.23-4.83a3.34,3.34,0,0,0-1.38-.23q-2.07,0-2.07,1.38c0,.69.46,1.15,1.61,1.15s2.08-.69,2.08-1.61v-.46Z" transform="translate(-2.45 -2.4)"/><path d="M400,187.27h-9.67l-.23-.23v-2.53l.23-.46,5.3-5.3v-.23h-5.07l-.23-.23V176l.23-.23h9.21l.23.23v2.53l-.23.46-5.29,5.3v.23H400l.23.23V187Z" transform="translate(-2.45 -2.4)"/><path d="M405.32,173.92h-2.77l-.23-.23v-2.3l.23-.23h2.77l.23.23v2.3Zm0,13.35h-2.77l-.23-.23V176l.23-.23h2.77l.23.23v11Z" transform="translate(-2.45 -2.4)"/><path d="M418.67,187.27H415.9l-.23-.23v-6.67c0-1.16-.46-2.08-1.84-2.08-1.61,0-2.53.92-2.53,3V187l-.23.23h-2.76l-.23-.23V176l.23-.23h2.53l.23.23.23.69h.23a4.05,4.05,0,0,1,3-1.15c2.77,0,4.38,1.84,4.38,4.61V187Z" transform="translate(-2.45 -2.4)"/><path d="M431.71,182.44l-.23.23h-7.14l-.23.23a2.09,2.09,0,0,0,2.31,1.84,1.79,1.79,0,0,0,1.61-.69l.23-.23H431l.23.23c-.23,1.38-1.38,3.45-4.83,3.45-3.92,0-5.76-2.76-5.76-6s1.84-6,5.53-6,5.52,2.76,5.52,6Zm-3.45-2.3a2.09,2.09,0,0,0-4.15,0l.23.23H428Z" transform="translate(-2.45 -2.4)"/>
</svg>
