<svg viewBox="0 0 128 128" xmlns="http://www.w3.org/2000/svg" xmlns:xlink="http://www.w3.org/1999/xlink">
  <title>LinkedIn</title>
  <path
    id="path4"
    d="M29.075 51.747h14.869V99.54H29.075V51.747zm7.439-23.757c4.751 0 8.609 3.859 8.609 8.613 0 4.755-3.858 8.614-8.61 8.614a8.61 8.61 0 0 1-8.616-8.614 8.61 8.61 0 0 1 8.617-8.613M53.262 51.747H67.5v6.534h.204c1.98-3.758 6.827-7.72 14.054-7.72 15.039 0 17.818 9.896 17.818 22.767V99.54H84.725V76.298c0-5.542-.096-12.672-7.72-12.672-7.728 0-8.907 6.04-8.907 12.275V99.54H53.262V51.747z" />
</svg>
