<svg width="312px" height="512px" viewBox="0 0 312 512" version="1.1" xmlns="http://www.w3.org/2000/svg" xmlns:xlink="http://www.w3.org/1999/xlink">
    <g id="Symbols" stroke="none" stroke-width="1" fill="none" fill-rule="evenodd">
        <g id="news-phone" fill="#333333">
            <g id="mobile">
                <path d="M265.003906,0 L46.875,0 C21.027344,0 -2.84217094e-14,21.027344 -2.84217094e-14,46.875 L-2.84217094e-14,465.125 C-2.84217094e-14,490.972656 21.027344,512 46.875,512 L265.003906,512 C290.847656,512 311.878906,490.972656 311.878906,465.125 L311.878906,46.875 C311.878906,21.027344 290.851562,0 265.003906,0 Z M281.878906,465.125 C281.878906,474.429688 274.308594,482 265.003906,482 L46.875,482 C37.570312,482 30,474.429688 30,465.125 L30,421.441406 L281.878906,421.441406 L281.878906,465.125 Z M281.878906,391.441406 L30,391.441406 L30,88.425781 L281.878906,88.425781 L281.878906,391.441406 Z M281.878906,58.425781 L30,58.425781 L30,46.875 C30,37.570312 37.570312,30 46.875,30 L265.003906,30 C274.308594,30 281.878906,37.570312 281.878906,46.875 L281.878906,58.425781 Z" id="Shape" fill-rule="nonzero"></path>
                <path d="M170.9375,451.234375 C170.9375,442.925781 164.222656,436.191406 155.9375,436.191406 C147.65625,436.191406 140.9375,442.925781 140.9375,451.234375 C140.9375,459.542969 147.65625,466.277344 155.9375,466.277344 C164.222656,466.277344 170.9375,459.542969 170.9375,451.234375 Z" id="Path"></path>
                <path d="M155.9375,348.082031 C215.429688,348.082031 263.828125,299.566406 263.828125,239.933594 C263.828125,180.300781 215.429688,131.785156 155.9375,131.785156 C96.449219,131.785156 48.050781,180.300781 48.050781,239.933594 C48.050781,299.566406 96.449219,348.082031 155.9375,348.082031 Z M232.375,224.933594 L206.238281,224.933594 C205.398438,206.828125 203.050781,189.847656 199.390625,175.105469 C216.199219,186.484375 228.351562,204.265625 232.375,224.933594 Z M206.238281,254.933594 L232.375,254.933594 C228.351562,275.601562 216.199219,293.382812 199.390625,304.761719 C203.050781,290.015625 205.398438,273.039062 206.238281,254.933594 Z M148.421875,162.152344 C150.898438,161.914062 153.402344,161.78125 155.9375,161.78125 C158.476562,161.78125 160.980469,161.914062 163.453125,162.152344 C170.351562,176.988281 174.902344,199.65625 176.203125,224.933594 L135.675781,224.933594 C136.976562,199.65625 141.527344,176.988281 148.421875,162.152344 Z M176.203125,254.933594 C174.902344,280.210938 170.351562,302.878906 163.453125,317.710938 C160.980469,317.949219 158.476562,318.082031 155.9375,318.082031 C153.402344,318.082031 150.898438,317.949219 148.421875,317.710938 C141.527344,302.875 136.976562,280.210938 135.675781,254.933594 L176.203125,254.933594 Z M112.488281,175.105469 C108.828125,189.847656 106.480469,206.828125 105.640625,224.933594 L79.503906,224.933594 C83.527344,204.265625 95.679688,186.484375 112.488281,175.105469 Z M105.640625,254.933594 C106.480469,273.039062 108.828125,290.015625 112.488281,304.761719 C95.679688,293.382812 83.527344,275.601562 79.503906,254.933594 L105.640625,254.933594 Z" id="Shape" fill-rule="nonzero"></path>
            </g>
        </g>
    </g>
</svg>
