<svg width="411px" height="483px" viewBox="0 0 411 483" version="1.1" xmlns="http://www.w3.org/2000/svg" xmlns:xlink="http://www.w3.org/1999/xlink">
    <g id="Symbols" stroke="none" stroke-width="1" fill="#222" fill-rule="evenodd">
        <g id="student">
            <path d="M203.7,260.2 C204.2,260.2 204.7,260.2 205.3,260.2 C205.5,260.2 205.7,260.2 205.9,260.2 C206.2,260.2 206.6,260.2 206.9,260.2 C236.2,259.7 259.9,249.4 277.4,229.7 C315.9,186.3 309.5,111.9 308.8,104.8 C306.3,51.5 281.1,26 260.3,14.1 C244.8,5.2 226.7,0.4 206.5,0 L205.8,0 C205.7,0 205.5,0 205.4,0 L204.8,0 C193.7,0 171.9,1.8 151,13.7 C130,25.6 104.4,51.1 101.9,104.8 C101.2,111.9 94.8,186.3 133.3,229.7 C150.7,249.4 174.4,259.7 203.7,260.2 Z M128.6,107.3 C128.6,107 128.7,106.7 128.7,106.5 C132,34.8 182.9,27.1 204.7,27.1 L205.1,27.1 C205.3,27.1 205.6,27.1 205.9,27.1 C232.9,27.7 278.8,38.7 281.9,106.5 C281.9,106.8 281.9,107.1 282,107.3 C282.1,108 289.1,176 257.3,211.8 C244.7,226 227.9,233 205.8,233.2 C205.6,233.2 205.5,233.2 205.3,233.2 L205.3,233.2 C205.1,233.2 205,233.2 204.8,233.2 C182.8,233 165.9,226 153.4,211.8 C121.7,176.2 128.5,107.9 128.6,107.3 Z" id="Shape" fill-rule="nonzero"></path>
            <path d="M410.8,383.6 C410.8,383.5 410.8,383.4 410.8,383.3 C410.8,382.5 410.7,381.7 410.7,380.8 C410.1,361 408.8,314.7 365.4,299.9 C365.1,299.8 364.7,299.7 364.4,299.6 C319.3,288.1 281.8,262.1 281.4,261.8 C275.3,257.5 266.9,259 262.6,265.1 C258.3,271.2 259.8,279.6 265.9,283.9 C267.6,285.1 307.4,312.8 357.2,325.6 C380.5,333.9 383.1,358.8 383.8,381.6 C383.8,382.5 383.8,383.3 383.9,384.1 C384,393.1 383.4,407 381.8,415 C365.6,424.2 302.1,456 205.5,456 C109.3,456 45.4,424.1 29.1,414.9 C27.5,406.9 26.8,393 27,384 C27,383.2 27.1,382.4 27.1,381.5 C27.8,358.7 30.4,333.8 53.7,325.5 C103.5,312.7 143.3,284.9 145,283.8 C151.1,279.5 152.6,271.1 148.3,265 C144,258.9 135.6,257.4 129.5,261.7 C129.1,262 91.8,288 46.5,299.5 C46.1,299.6 45.8,299.7 45.5,299.8 C2.1,314.7 0.8,361 0.2,380.7 C0.2,381.6 0.2,382.4 0.1,383.2 C0.1,383.3 0.1,383.4 0.1,383.5 C1.38777878e-17,388.7 -0.1,415.4 5.2,428.8 C6.2,431.4 8,433.6 10.4,435.1 C13.4,437.1 85.3,482.9 205.6,482.9 C325.9,482.9 397.8,437 400.8,435.1 C403.1,433.6 405,431.4 406,428.8 C411,415.5 410.9,388.8 410.8,383.6 Z" id="Path"></path>
        </g>
    </g>
</svg>
