<svg viewBox="0 0 128 128" xmlns="http://www.w3.org/2000/svg" xmlns:xlink="http://www.w3.org/1999/xlink">
  <title>Twitter</title>
  <path id="path4" d="M99.84 41.77a29.377 29.377 0 0 1-8.446 2.315 14.751 14.751 0 0 0 6.465-8.136 29.445 29.445 0 0 1-9.338 3.569 14.686 14.686 0 0 0-10.734-4.644c-8.122 0-14.706 6.584-14.706 14.705 0 1.153.13 2.276.38 3.352-12.222-.614-23.058-6.468-30.31-15.366a14.635 14.635 0 0 0-1.992 7.394 14.7 14.7 0 0 0 6.542 12.24 14.643 14.643 0 0 1-6.66-1.84c-.002.062-.002.123-.002.186 0 7.125 5.07 13.068 11.797 14.42a14.734 14.734 0 0 1-6.642.252c1.872 5.842 7.303 10.094 13.738 10.213a29.506 29.506 0 0 1-18.264 6.295 29.91 29.91 0 0 1-3.508-.205 41.62 41.62 0 0 0 22.543 6.606c27.05 0 41.842-22.408 41.842-41.842 0-.637-.015-1.271-.043-1.902a29.865 29.865 0 0 0 7.338-7.612z"/>
</svg>
