<?xml version="1.0" encoding="UTF-8"?><!DOCTYPE svg PUBLIC "-//W3C//DTD SVG 1.1//EN" "http://www.w3.org/Graphics/SVG/1.1/DTD/svg11.dtd"><svg xmlns="http://www.w3.org/2000/svg" xmlns:xlink="http://www.w3.org/1999/xlink"><symbol id="calendar" viewBox="0 0 30 30">
  <path d="M13.6321108,20.9477234 C13.8019274,21.1136627 14.0320921,21.2070465 14.2723147,21.2070465 C14.5123035,21.2070465 14.7424682,21.1138916 14.9122848,20.9477234 L18.1441804,17.785263 C18.497848,17.4391937 18.497848,16.8784332 18.1441804,16.5323639 C17.7907466,16.1865234 17.2174401,16.1865234 16.8640063,16.5323639 L14.2723147,19.0683746 L13.0906156,17.9120636 C12.736948,17.5662231 12.1638754,17.5662231 11.8102077,17.9120636 C11.456774,18.257904 11.456774,18.8188934 11.8102077,19.1649628 L13.6321108,20.9477234 Z"/>
  <path d="M14.977311,25.7720947 C18.9399326,25.7720947 22.1636414,22.6174164 22.1636414,18.7399292 C22.1636414,14.862442 18.9399326,11.7079925 14.977311,11.7079925 C11.0144554,11.7079925 7.79074665,14.862442 7.79074665,18.7399292 C7.79074665,22.6174164 11.0146893,25.7720947 14.977311,25.7720947 Z M14.977311,13.4795379 C17.9416168,13.4795379 20.3531999,15.8393097 20.3531999,18.7399292 C20.3531999,21.6405487 17.9416168,24.0005493 14.977311,24.0005493 C12.0130053,24.0005493 9.60118826,21.6405487 9.60118826,18.7399292 C9.60118826,15.8393097 12.0130053,13.4795379 14.977311,13.4795379 Z"/>
  <path d="M27.0265719,1.8862152 L25.375421,1.8862152 L25.375421,0.885772734 C25.375421,0.396652207 24.9700599,0 24.4702002,0 C23.9703406,0 23.5649794,0.396652207 23.5649794,0.885772734 L23.5649794,1.8862152 L21.7861153,1.8862152 L21.7861153,0.885772734 C21.7861153,0.396652207 21.3807541,0 20.8806605,0 C20.3808009,0 19.9754398,0.396652207 19.9754398,0.885772734 L19.9754398,1.8862152 L9.97918228,1.8862152 L9.97918228,0.885772734 C9.97918228,0.396652207 9.57382108,0 9.07372754,0 C8.5738679,0 8.16850671,0.396652207 8.16850671,0.885772734 L8.16850671,1.8862152 L6.38964257,1.8862152 L6.38964257,0.885772734 C6.38964257,0.396652207 5.98428144,0 5.4841879,0 C4.9843282,0 4.57896707,0.396652207 4.57896707,0.885772734 L4.57896707,1.8862152 L2.92758234,1.8862152 C1.31338886,1.8862152 2.84217094e-14,3.17138672 2.84217094e-14,4.75112918 L2.84217094e-14,27.1353149 C2.84217094e-14,28.7148285 1.31338886,30 2.92758234,30 L27.0265719,30 C28.6409993,30 29.9541542,28.7148285 29.9541542,27.1353149 L29.9541542,4.75112918 C29.9541542,3.17138672 28.6407653,1.8862152 27.0265719,1.8862152 Z M28.1434787,27.1353149 C28.1434787,27.7379608 27.6424495,28.2284546 27.0265719,28.2284546 L2.92758234,28.2284546 C2.31170473,28.2284546 1.81044162,27.7379608 1.81044162,27.1353149 L1.81044162,9.2518616 L28.1434787,9.2518616 L28.1434787,27.1353149 Z M1.81044162,4.75112918 C1.81044162,4.14825439 2.31170473,3.65798953 2.92758234,3.65798953 L4.57896707,3.65798953 L4.57896707,4.65843199 C4.57896707,5.14755246 4.9843282,5.54420473 5.4844218,5.54420473 C5.98428144,5.54420473 6.38964257,5.14755246 6.38964257,4.65843199 L6.38964257,3.65798953 L8.16850671,3.65798953 L8.16850671,4.65843199 C8.16850671,5.14755246 8.5738679,5.54420473 9.07396144,5.54420473 C9.57382108,5.54420473 9.97918228,5.14755246 9.97918228,4.65843199 L9.97918228,3.65798953 L19.9754398,3.65798953 L19.9754398,4.65843199 C19.9754398,5.14755246 20.3808009,5.54420473 20.8808945,5.54420473 C21.3807541,5.54420473 21.7861153,5.14755246 21.7861153,4.65843199 L21.7861153,3.65798953 L23.5649794,3.65798953 L23.5649794,4.65843199 C23.5649794,5.14755246 23.9703406,5.54420473 24.4702002,5.54420473 C24.9702938,5.54420473 25.375655,5.14755246 25.375655,4.65843199 L25.375655,3.65798953 L27.0265719,3.65798953 C27.6424495,3.65798953 28.1437126,4.14825439 28.1437126,4.75112918 L28.1437126,7.48008727 L1.81044162,7.48008727 L1.81044162,4.75112918 Z"/>
</symbol><symbol id="check-circle" viewBox="0 0 36 36">
    <path d="M18,-0.000100000001 C27.9250909,-0.000100000001 36,8.07480909 36,17.9999 C36,27.9239 27.9250909,35.9999 18,35.9999 C8.07490909,35.9999 0,27.9239 0,17.9999 C0,8.07480909 8.07490909,-0.000100000001 18,-0.000100000001 Z M18,34.4900818 C27.0927273,34.4900818 34.4901818,27.0926273 34.4901818,17.9999 C34.4901818,8.90608182 27.0927273,1.50862727 18,1.50862727 C8.90727273,1.50862727 1.50981818,8.90608182 1.50981818,17.9999 C1.50981818,27.0926273 8.90727273,34.4900818 18,34.4900818 Z M27.7131273,10.9914636 C28.0109455,10.7012818 28.4887636,10.7078273 28.7800364,11.0067364 C29.0713091,11.3056455 29.0647636,11.7823727 28.7658545,12.0736455 L15.4807636,25.0074636 C15.4338545,25.0543727 15.3749455,25.0805545 15.3193091,25.1121909 C15.2920364,25.1274636 15.2680364,25.1525545 15.2385818,25.1645545 C15.1480364,25.2016455 15.0509455,25.2212818 14.9549455,25.2212818 C14.8589455,25.2212818 14.7618545,25.2016455 14.6713091,25.1645545 C14.6418545,25.1525545 14.6178545,25.1274636 14.5905818,25.1121909 C14.5349455,25.0805545 14.4760364,25.0543727 14.4291273,25.0074636 L7.23458182,18.0038273 C6.93567273,17.7125545 6.92912727,17.2358273 7.21930909,16.9369182 C7.51058182,16.6380091 7.9884,16.6314636 8.28730909,16.9216455 L14.9549455,23.4125545 L27.7131273,10.9914636 Z"/>
</symbol><symbol id="cornell-seal" viewBox="0 0 120 120">
	<path d="M45.9,91.7c6.8,5.3,13.5,8.2,13.8,8.3l0.5,0.2l0.5-0.2c0.3-0.1,6.9-3,13.7-8.3c9.1-7.1,13.9-15.2,13.9-23.5l0-37.6l-56.4,0
		l0,37C31.9,76.1,36.7,84.5,45.9,91.7z M58.8,80.1c-0.3-0.1-0.6-0.2-1-0.2c0,0,0,0-0.1,0c-1.4,0-2.4,0.1-3.5,0.2
		c-1.1,0.1-2.2,0.2-3.8,0.2c-0.7,0-1.4,0-1.9,0V62.7c0.1,0,0.2,0,0.2,0c0.7,0,1.5,0,2.6,0c0.9,0,1.9-0.1,3-0.2
		c0.6-0.1,1.3-0.1,2-0.2c1.2-0.1,2.2,0.1,2.2,0.1c0.1,0,0.2,0.1,0.3,0.1C58.8,62.4,58.8,80.1,58.8,80.1z M85.6,68.2
		c0,15.4-18.9,25.8-24.5,28.6v-14c0.1-0.1,0.2-0.2,0.3-0.3c0.3-0.3,0.5-0.5,1-0.5c1.3,0,2.3,0.1,3.4,0.2c1.1,0.1,2.2,0.2,3.9,0.2
		c1.7,0,3,0,3,0l0.9,0l0-5.2h2.2v-2.8h-2.2l0-5.1h2.2v-2.8h-2.2l0-5.7l-1,0c-0.4,0-0.8,0-1.3,0c-0.7,0-1.5,0-2.5,0
		c-0.8,0-1.7-0.1-2.8-0.2c-0.6-0.1-1.3-0.1-2-0.2c-1.5-0.2-2.8,0.1-2.9,0.1c0,0,0,0-0.1,0V55h24.5L85.6,68.2z M61.1,80.2V62.5
		c0.1-0.1,0.3-0.1,0.5-0.2c0,0,1.1-0.2,2.3-0.1c0.7,0.1,1.4,0.1,2,0.2c1.1,0.1,2.1,0.2,3,0.2c0.9,0,1.6,0,2.3,0c0.2,0,0.4,0,0.5,0
		l0,17.7c-0.5,0-1.2,0-1.9,0c-1.6,0-2.7-0.1-3.8-0.2c-1.1-0.1-2.1-0.2-3.5-0.2C61.9,80,61.5,80.1,61.1,80.2z M34.6,33.3l51,0l0,19.1
		h-51L34.6,33.3z M34.6,55h24.3v5.3c-0.4-0.1-1.5-0.2-2.7-0.1c-0.7,0.1-1.4,0.1-2,0.2c-1.1,0.1-2,0.2-2.8,0.2c-1,0-1.8,0-2.5,0
		c-0.5,0-0.9,0-1.3,0l-1,0v5.1h-2.4v2.8h2.4v5.1h-2.4v2.8h2.4v5.7l0.9,0c0.1,0,1.4,0.1,3,0c1.7,0,2.9-0.1,3.9-0.2
		c1.1-0.1,2-0.2,3.3-0.2c0.5,0,0.7,0.2,0.9,0.5c0,0,0.1,0.1,0.1,0.1v14.1C53,93.8,34.6,83.5,34.6,67.6L34.6,55z"/>
	<path d="M55.9,35.2H41.6v1c0,3.1,0,8.4,0,8.6c0.1,1.1,0.8,2.1,2.2,3c1.7,1.2,4.3,2.7,4.4,2.7l0.5,0.3l0.5-0.3
		c0.1-0.1,2.9-1.6,4.6-2.7c2-1.3,2.1-2.6,2.1-3c0-0.2,0-4.8,0-8.6V35.2z M43.6,37.2h10.2c0,0.8,0,1.7,0,2.6H43.6
		C43.6,38.9,43.6,38,43.6,37.2z M53.9,44.7c0,0.5-0.7,1-1.2,1.4c-1.2,0.8-3.1,1.9-4,2.4c-0.8-0.5-2.6-1.5-3.8-2.4
		c-0.8-0.5-1.3-1.1-1.3-1.5c0-0.1,0-1.3,0-2.9h10.2C53.9,43.3,53.9,44.5,53.9,44.7z"/>
	<path d="M80.1,34.8H65.6v1c0,3.9,0,8.6,0,8.9c0.1,1.1,0.8,2.1,2.2,3c1.8,1.2,4.4,2.7,4.5,2.8l0.5,0.3l0.5-0.3
		c0.1-0.1,3-1.6,4.7-2.8c2.1-1.4,2.1-2.6,2.1-3c0-0.2,0-4.9,0-8.8L80.1,34.8z M78.1,44.5c0,0.5-0.7,1.1-1.2,1.4
		c-1.3,0.8-3.2,1.9-4.1,2.4c-0.9-0.5-2.6-1.6-3.9-2.4c-0.4-0.3-1.3-0.9-1.3-1.5c0-0.1,0-0.2,0-0.5l5-3.6l5.5,3.7
		C78.1,44.3,78.1,44.5,78.1,44.5z M72.6,37.8l-5,3.6c0-1.4,0-3.2,0-4.7h10.6c0,1.6,0,3.3,0,4.8L72.6,37.8z"/>
	<path d="M63.7,66.5l1,0.1c0.6,0.1,1.2,0.1,1.7,0.1l2.9,0.1l0-2l-2.9-0.1c-0.4,0-0.9-0.1-1.5-0.1l-1-0.1c-0.3,0-0.5,0-0.7,0l0.1,2
		C63.4,66.4,63.6,66.4,63.7,66.5z"/>
	<path d="M66.4,70.2c-0.4,0-0.9-0.1-1.5-0.1c-0.3,0-0.7-0.1-1-0.1c-0.3,0-0.5,0-0.7,0l0,2c0.1,0,0.3,0,0.5,0c0.4,0,0.7,0.1,1,0.1
		c0.6,0.1,1.1,0.1,1.6,0.1c0.6,0,1.5,0,2.2,0l0.8,0l0-2l-0.8,0C67.9,70.3,67,70.2,66.4,70.2z"/>
	<path d="M66.4,75.8c-0.4,0-0.9-0.1-1.5-0.1c-0.3,0-0.7-0.1-1-0.1c-0.3,0-0.5,0-0.7,0l0.1,2c0.1,0,0.3,0,0.5,0c0.4,0,0.7,0.1,1,0.1
		c0.6,0.1,1.2,0.1,1.6,0.1l0.8,0c0.8,0,1.8,0,2.1,0.1l0-2c-0.3,0-1.3,0-2.1-0.1L66.4,75.8z"/>
	<path d="M53.8,66.7c0.5,0,1-0.1,1.7-0.1c0.3,0,0.6-0.1,1-0.1c0.2,0,0.3,0,0.5,0l0-2c-0.2,0-0.4,0-0.7,0c-0.4,0-0.7,0.1-1,0.1
		c-0.6,0.1-1.1,0.1-1.5,0.1l-2.9,0.1l0,2L53.8,66.7z"/>
	<path d="M55.3,70.1c-0.6,0.1-1.1,0.1-1.5,0.1l-2.9,0.1l0,2l2.9-0.1c0.5,0,1-0.1,1.7-0.1l0.9-0.1c0.2,0,0.3,0,0.4,0l0.1-2
		c-0.2,0-0.4,0-0.7,0L55.3,70.1z"/>
	<path d="M55.3,75.6c-0.6,0.1-1.1,0.1-1.6,0.1c-0.9,0-2.4,0.1-2.8,0.1l0,2c0.4,0,1.9-0.1,2.9-0.1c0.5,0,1-0.1,1.7-0.1l1-0.1
		c0.1,0,0.3,0,0.4,0l0-2c-0.2,0-0.4,0-0.7,0L55.3,75.6z"/>
	<path d="M9.3,60.3c2.5,0,4-1.6,4.2-4.4c0-0.5,0-1.2-0.1-1.9l0-0.2l-2.1,0l0.2,0.4c0.1,0.3,0.2,1,0.2,1.6c-0.1,1.4-1.2,2.3-2.7,2.2
		c-1.6-0.1-2.5-1.1-2.5-2.5c0-0.5,0.1-1,0.5-1.5l0.3-0.4l-2-0.3l-0.1,0.2c-0.3,0.6-0.4,1.3-0.5,1.9c-0.2,2.9,1.4,4.8,4.3,4.9
		C9.1,60.3,9.2,60.3,9.3,60.3z"/>
	<path d="M9.7,50.5c0.6,0.2,1.1,0.2,1.6,0.2c1.9,0,3.3-1.1,3.9-3c0.3-1.2,0.2-2.2-0.3-3.2c-0.6-1-1.6-1.7-2.9-2.1
		c-0.5-0.2-1.1-0.2-1.5-0.2c-1.9,0-3.3,1.1-3.9,3C5.8,47.7,7,49.7,9.7,50.5z M8.3,45.8c0.3-1.1,1.2-1.3,1.9-1.3
		c0.3,0,0.7,0.1,1.1,0.2c0.9,0.3,1.6,0.7,1.9,1.3c0.2,0.4,0.3,0.8,0.1,1.3c-0.3,1.1-1.2,1.3-1.9,1.3c-0.4,0-0.7-0.1-1.1-0.2
		C9.1,48,7.9,47.1,8.3,45.8z"/>
	<path d="M18.3,39.3l-2.9-1.6l0.1-0.2c0.3-0.5,0.5-0.5,0.9-0.4l2.9,0.4l1.1-2.1l-3.8-0.4c-0.3,0-0.5,0-0.7,0c0-0.8-0.4-1.6-1.2-2
		c-0.4-0.2-0.8-0.3-1.2-0.3c-1.4,0-2.1,1.4-2.8,2.7l-1,1.9l7.6,4.1L18.3,39.3z M13.8,36.6l-0.1,0.2l-1.4-0.7l0.1-0.2
		c0.3-0.6,0.7-1.2,1.3-0.9c0.2,0.1,0.3,0.2,0.4,0.4C14.2,35.8,14,36.3,13.8,36.6z"/>
	<polygon points="23,31.7 19.1,28.5 24.7,29.8 26.2,27.9 19.6,22.4 18.2,24 22.2,27.3 16.6,26 15,27.9 21.7,33.4 	"/>
	<polygon points="32.7,22.4 31.5,21 29.1,22.9 28,21.6 30.2,19.8 29,18.4 26.8,20.2 26,19.1 28.4,17.2 27.2,15.7 23.1,19 28.5,25.7
			"/>
	<polygon points="39.8,18.1 38.9,16.5 36.2,18 32.9,12.1 31,13.2 35.2,20.7 	"/>
	<polygon points="47.1,15.3 46.4,13.6 43.6,14.6 41.3,8.3 39.2,9 42.1,17.1 	"/>
	<path d="M55.8,13.9c0.2,0,0.3,0,0.5,0c1.2-0.1,2.1-0.5,2.6-1.1c0.5-0.6,0.7-1.5,0.6-2.5l-0.4-5.4L56.9,5l0.4,4.9
		c0.1,1.7-0.6,2-1.2,2.1c-0.1,0-0.1,0-0.2,0c-0.5,0-1.2-0.2-1.4-1.9l-0.4-4.9l-2.2,0.2l0.4,5.4C52.7,12.8,53.8,13.9,55.8,13.9z"/>
	<polygon points="65.7,8.8 67.5,14.1 70,14.5 71.1,5.9 69,5.6 68.3,10.7 66.5,5.3 64.1,5 62.9,13.5 65,13.8 	"/>
	<polygon points="77.6,7.8 75.5,7.1 72.9,15.3 75,16 	"/>
	<polygon points="88.4,12.6 86.5,11.6 82.3,15.9 83.2,10 81.1,8.9 79.8,18 82,19 	"/>
	<polygon points="90.6,25 91.7,23.5 89.3,21.6 90.3,20.3 92.5,22 93.7,20.5 91.5,18.8 92.3,17.7 94.7,19.6 95.9,18.1 91.7,14.9
		86.4,21.7 	"/>
	<path d="M94.2,28.6l2.5-2.2l0.1,0.2c0.3,0.4,0.3,0.5,0.1,1l-1.4,2.6l1.6,1.8l1.7-3.4c0.1-0.1,0.2-0.4,0.2-0.7
		c0.7,0.3,1.6,0.2,2.3-0.4c1.9-1.6,0.4-3.3-0.7-4.6l-1.4-1.6L92.7,27L94.2,28.6z M99.3,24.1l0.1,0.2c0.3,0.4,0.6,0.8,0.6,1.1
		c0,0.2-0.1,0.3-0.3,0.4C99.6,26,99.4,26,99.3,26c-0.4,0-0.8-0.4-1-0.7l-0.1-0.2L99.3,24.1z"/>
	<path d="M102.2,35.5c-0.4,0.3-1-0.2-1.2-0.6c-0.3-0.5-0.4-1-0.4-1.7l0-0.5l-2,0.9l0.1,0.4c0.2,0.7,0.3,1.1,0.7,1.8
		c0.7,1.2,1.6,1.8,2.6,1.8c0.5,0,0.9-0.1,1.4-0.4c1.5-0.9,1.3-2.3,1.1-3.4c-0.1-0.7-0.2-1.2,0.1-1.4c0.2-0.1,0.3-0.1,0.4-0.1
		c0.4,0,0.7,0.4,0.8,0.5c0.3,0.4,0.4,0.9,0.5,1.4l0.1,0.4l1.8-0.8l0-0.2c-0.1-0.6-0.4-1.2-0.8-1.9c-0.9-1.6-2.5-2.1-3.9-1.2
		c-1.5,0.9-1.3,2.3-1.1,3.3C102.5,34.8,102.6,35.3,102.2,35.5z"/>
	<rect x="102.5" y="39.6" transform="matrix(0.9259 -0.3777 0.3777 0.9259 -7.4559 43.3568)" width="8.6" height="2.2"/>
	<polygon points="111.2,46.2 104.7,47.8 105.2,49.9 111.8,48.3 112.3,50.5 114.1,50.1 112.5,43.5 110.7,44 	"/>
	<polygon points="106.2,56.6 106.3,58.8 109.7,58.6 115.1,61.4 115,59 111.8,57.5 114.8,55.6 114.6,53 109.6,56.5 	"/>
	<polygon points="11,76.4 12.8,75.9 12.1,73.3 13.4,72.9 14.2,75.7 16,75.1 14.6,70.3 6.3,72.7 6.9,74.8 10.3,73.8 	"/>
	<path d="M18.7,83.6c0.3-1,0.2-2.1-0.3-3.2c-0.8-1.6-2-2.4-3.6-2.4c-0.7,0-1.5,0.2-2.3,0.6c-1.3,0.6-2.1,1.5-2.5,2.6
		c-0.3,1-0.2,2.1,0.3,3.2c0.8,1.5,2,2.4,3.6,2.4c0.7,0,1.5-0.2,2.3-0.6C17.5,85.5,18.4,84.7,18.7,83.6z M15.3,84.1
		c-0.5,0.3-1.1,0.4-1.6,0.4c-0.8,0-1.3-0.3-1.6-1c-0.2-0.5-0.3-0.9-0.1-1.3c0.2-0.6,0.8-1.2,1.6-1.6c0.5-0.2,1-0.4,1.5-0.4
		c0.8,0,1.3,0.3,1.6,1c0.2,0.5,0.3,0.9,0.1,1.3C16.6,83.1,16.1,83.7,15.3,84.1z"/>
	<path d="M24.7,90.3l-3.9,3.1c-1,0.8-1.8,0.9-2.4,0.2c-0.2-0.3-0.3-0.6-0.3-0.9c0.1-0.4,0.4-0.9,1-1.4l3.9-3.1l-1.4-1.7l-4.3,3.4
		c-0.9,0.7-1.4,1.5-1.4,2.4c0,0.8,0.3,1.6,1,2.5c0.8,1.1,1.7,1.6,2.7,1.6c0.7,0,1.4-0.3,2.1-0.9L26,92L24.7,90.3z"/>
	<polygon points="32,97.3 28.8,101.3 30,95.7 28.1,94.1 22.6,100.8 24.3,102.2 27.5,98.2 26.3,103.8 28.2,105.4 33.7,98.7 	"/>
	<path d="M38.4,101.4l-2.2-1.1l-3.9,7.7l2.2,1.1c1.1,0.5,2,0.8,2.9,0.8c1.5,0,2.7-0.8,3.5-2.4C42.2,104.9,41.3,102.9,38.4,101.4z
		 M38.8,106.5c-0.4,0.9-1.2,1.4-2.1,1.4c-0.4,0-0.7-0.1-1.1-0.3l-0.5-0.3l2.2-4.4l0.5,0.3c0.6,0.3,1,0.8,1.2,1.3
		C39.2,105.2,39.1,105.8,38.8,106.5z"/>
	<polygon points="43.2,112.8 48.3,114.2 48.8,112.4 45.8,111.6 46.2,110 49,110.7 49.5,108.9 46.7,108.2 47,106.8 50.1,107.6
		50.5,105.8 45.4,104.5 	"/>
	<path d="M55.9,106.5l-2.5-0.1l-0.5,8.6l2.5,0.1c0.2,0,0.4,0,0.6,0c2.9,0,4.4-1.4,4.6-4.1c0.1-1.3-0.2-2.4-0.9-3.2
		C58.9,107.1,57.7,106.6,55.9,106.5z M55.8,113.3l-0.6,0l0.3-4.9l0.6,0c1.2,0.1,2.3,1,2.2,2.6C58.2,112.6,57,113.3,55.8,113.3z"/>
	<path d="M68.2,105.8l-1.5,9.1l2.3-0.5l0.3-1.9l2.8-0.6l1.1,1.7l2.4-0.5l-5.1-7.7L68.2,105.8z M69.6,110.6l0.3-2.3l1.2,1.9
		L69.6,110.6z"/>
	<polygon points="76.4,110.3 77.2,112.4 79.2,111.6 78.5,109.6 	"/>
	<path d="M80.6,101.6l-2.2,1.2l4.1,7.6l2.2-1.2c2.9-1.6,3.6-3.6,2.3-6.1C85.7,100.5,83.5,100,80.6,101.6z M84.1,107.4l-0.5,0.3
		l-2.3-4.3l0.5-0.3c0.3-0.2,0.7-0.3,1.1-0.3c0.9,0,1.6,0.5,2.1,1.3C85.8,105.5,85.1,106.8,84.1,107.4z"/>
	<polygon points="88.7,104.3 89.9,106.1 91.7,104.8 90.5,103 	"/>
	<polygon points="92.1,93.2 91.7,96.6 93.6,96.9 93.8,95.5 97.9,99.6 99.5,98.1 93.4,91.9 	"/>
	<path d="M103.8,88.7c-0.7-0.5-1.5-0.6-2.4-0.3c0-0.8-0.4-1.6-1-2c-1.1-0.8-2.5-0.3-3.6,1.1c-1,1.4-0.9,2.8,0.3,3.7
		c0.6,0.4,1.4,0.5,2.1,0.3c-0.1,0.9,0.2,1.6,0.9,2.1c0.5,0.4,1,0.5,1.5,0.5c0.9,0,1.7-0.5,2.5-1.5c0.6-0.8,0.9-1.6,0.8-2.4
		C104.8,89.7,104.4,89.2,103.8,88.7z M99.7,89.3c-0.3,0.2-0.6,0.4-0.9,0.4c-0.1,0-0.3,0-0.4-0.1c-0.4-0.3-0.2-0.8,0-1.1
		c0.1-0.2,0.3-0.3,0.5-0.3c0.1,0,0.3,0.1,0.5,0.2C99.7,88.6,99.8,89,99.7,89.3z M102.7,91.7c-0.3,0.4-0.8,0.5-1.2,0.2
		c-0.3-0.3-0.5-0.6-0.4-1.2c0.6-0.4,1.1-0.5,1.5-0.2c0.2,0.1,0.3,0.3,0.3,0.5C102.9,91.2,102.8,91.5,102.7,91.7z"/>
	<path d="M107.7,80.3c-1.5-0.7-2.9-0.3-3.6,1.1c-0.2,0.4-0.3,0.8-0.2,1.2c-0.5-0.4-1-1.1-0.6-2c0.2-0.4,0.5-0.7,0.8-1l0.3-0.2
		l-1.6-1.1l-0.2,0.2c-0.4,0.4-0.8,0.9-1.1,1.5c-0.4,0.9-0.5,1.7-0.2,2.5c0.5,1.4,1.9,2.4,3,2.9c1,0.5,1.8,0.7,2.5,0.7
		c1.1,0,1.9-0.5,2.5-1.6C110.1,82.7,109.5,81.2,107.7,80.3z M107.7,83.5c-0.1,0.3-0.4,0.4-0.7,0.4c-0.2,0-0.5-0.1-0.7-0.2
		c-0.4-0.2-0.7-0.5-0.8-0.7c-0.1-0.2,0-0.3,0-0.5c0.1-0.3,0.3-0.4,0.7-0.4c0.2,0,0.5,0.1,0.8,0.2c0.4,0.2,0.6,0.4,0.7,0.7
		C107.8,83.2,107.7,83.4,107.7,83.5z"/>
	<path d="M110.8,71.5c-1.7-0.5-3.1,0.3-3.6,1.9c0,0.2-0.1,0.3-0.1,0.4l-1-0.3l0.9-3l-1.7-0.5l-1.5,5l4.8,1.5l0-0.4
		c0-0.5,0.1-0.9,0.2-1.4c0.1-0.4,0.6-1.4,1.5-1.2c1,0.3,0.8,1.4,0.7,1.7c-0.2,0.6-0.5,1-0.8,1.4l-0.3,0.3l2,0.7l0.1-0.2
		c0.3-0.6,0.6-1.3,0.8-1.8c0.3-1,0.3-1.9-0.1-2.7C112.3,72.3,111.6,71.8,110.8,71.5z"/>
	<path d="M16.3,60c0,24,19.5,43.6,43.5,43.6c24,0,43.5-19.5,43.5-43.6c0-24-19.5-43.5-43.5-43.5C35.9,16.4,16.3,36,16.3,60z
		 M59.9,17.9c23.2,0,42,18.9,42,42c0,23.2-18.9,42-42,42c-23.2,0-42-18.9-42-42C17.8,36.8,36.7,17.9,59.9,17.9z"/>
	<path d="M59.9,0.4C27,0.4,0.3,27.1,0.3,60c0,32.8,26.7,59.6,59.6,59.6c32.8,0,59.6-26.7,59.6-59.6C119.4,27.1,92.7,0.4,59.9,0.4z
		 M59.9,118c-32,0-58-26-58-58c0-32,26-58,58-58c32,0,58,26,58,58C117.9,92,91.9,118,59.9,118z"/>
</symbol><symbol id="drupal" viewBox="0 0 430.114 430.114">
	<path d="M309.033,79.982c-22.028-13.69-42.854-19.062-63.631-32.756C232.521,38.529,214.651,17.812,199.658,0
		c-2.886,28.593-11.625,40.221-21.62,48.512c-21.165,16.547-34.485,21.51-52.799,31.47c-15.385,7.88-98.956,57.585-98.956,164.513
		c0,106.899,90.238,185.619,190.424,185.619c100.223,0,187.124-72.508,187.124-182.319
		C403.831,137.982,322.334,88.264,309.033,79.982z M310.723,388.315c-2.091,2.059-21.217,15.322-43.656,17.413
		c-22.458,2.054-52.821,3.3-71.103-13.278c-2.9-2.912-2.098-7.023,0-8.676c2.074-1.685,3.733-2.931,6.242-2.931s2.056,0,3.33,0.83
		c8.312,6.642,20.777,12.004,47.371,12.004c26.625,0,45.354-7.416,53.652-13.665c3.743-2.894,5.404-0.401,5.834,1.261
		C312.795,382.919,313.63,385.426,310.723,388.315z M238.663,353.433c4.573-4.158,12.078-10.79,19.153-13.679
		c7.066-2.913,10.771-2.492,17.446-2.492c6.646,0,13.739,0.415,18.715,3.752c4.975,3.318,7.901,10.753,9.529,14.869
		c1.681,4.173,0,6.646-3.295,8.321c-2.893,1.639-3.322,0.817-6.234-4.555c-2.89-5.381-5.396-10.79-19.957-10.79
		c-14.542,0-19.125,4.989-26.191,10.79c-7.066,5.787-9.567,7.864-12.074,4.555C233.268,360.896,234.099,357.564,238.663,353.433z
		 M388.737,274.443c0,12.835-4.145,36.035-14.15,50.535c-9.945,14.524-16.176,19.919-27.862,19.079
		c-14.981-1.26-44.897-47.66-64.023-48.51c-24.082-0.816-76.495,50.181-117.671,50.181c-24.957,0-32.413-3.725-40.723-9.139
		c-12.494-8.699-18.736-21.953-18.325-40.192c0.446-32.343,30.759-62.558,69.036-62.959c48.617-0.43,82.341,48.024,106.843,47.632
		c20.802-0.392,60.737-41.023,80.274-41.023C382.918,240.046,388.737,261.562,388.737,274.443z"/>
</symbol><symbol id="handshake" viewBox="0 0 512 320">
    <path d="M404.267,219.41 C394.219,198.461 358.272,169.383 323.542,141.287 C304.171,125.628 285.867,110.823 274.198,99.154 C271.275,96.21 266.902,95.271 263.041,96.658 C255.852,99.261 251.414,101.266 247.916,102.823 C242.583,105.212 240.791,106.023 233.601,106.748 C230.422,107.068 227.564,108.775 225.793,111.42 C210.71,133.969 195.094,132.049 184.662,128.551 C181.334,127.442 180.737,126.012 180.417,124.647 C178.177,115.282 189.42,93.479 203.99,78.908 C238.657,44.22 256.534,35.537 294.294,52.412 C337.131,71.569 380.054,86.567 380.481,86.716 C386.092,88.657 392.129,85.713 394.07,80.145 C395.99,74.577 393.067,68.497 387.499,66.556 C387.072,66.407 345.003,51.708 303.019,32.913 C254.102,11.046 227.264,25.446 188.928,63.804 C174.336,78.396 154.517,107.921 159.637,129.575 C161.834,138.791 168.32,145.618 177.962,148.796 C202.133,156.775 224.191,149.137 240.618,127.335 C247.402,126.29 251.093,124.754 256.639,122.258 C258.644,121.362 260.991,120.317 264.106,119.058 C276.309,130.514 292.778,143.847 310.122,157.863 C341.482,183.228 377.045,211.986 385.045,228.626 C388.992,236.839 384.746,242.194 381.866,244.647 C377.642,248.274 371.861,249.426 368.725,247.228 C365.269,244.86 360.768,244.711 357.205,246.844 C353.621,248.977 351.616,253.009 352.064,257.148 C352.789,263.932 346.581,267.815 343.893,269.159 C337.066,272.615 329.941,272.018 327.274,269.543 C324.287,266.77 319.999,265.959 316.202,267.367 C312.405,268.796 309.759,272.295 309.375,276.348 C308.735,283.345 303.551,290.065 296.788,292.689 C293.524,293.926 288.788,294.673 284.543,290.79 C281.898,288.401 278.228,287.483 274.794,288.315 C271.317,289.168 268.522,291.686 267.306,295.035 C266.901,296.102 265.983,298.662 255.999,298.662 C248.895,298.662 236.116,293.862 229.866,289.723 C222.378,284.795 175.423,249.766 134.869,215.803 C129.173,211.003 119.317,200.72 110.613,191.632 C102.89,183.568 95.829,176.251 92.202,173.179 C87.658,169.339 80.938,169.915 77.162,174.438 C73.365,178.939 73.919,185.681 78.421,189.478 C81.728,192.273 88.128,199.035 95.189,206.395 C104.704,216.336 114.538,226.619 121.152,232.166 C160.875,265.425 208.619,301.329 218.133,307.579 C225.984,312.742 242.901,319.995 256,319.995 C266.517,319.995 274.603,317.584 280.213,312.87 C287.722,315.793 296.256,315.814 304.469,312.614 C314.176,308.859 322.154,301.286 326.677,292.113 C335.082,293.905 344.704,292.646 353.45,288.252 C362.005,283.943 368.191,277.351 371.263,269.649 C379.754,270.097 388.5,267.089 395.732,260.881 C407.979,250.407 411.349,234.109 404.267,219.41 Z" id="Path"/>
    <path d="M213.333,42.663 L117.333,42.663 C111.445,42.663 106.666,47.442 106.666,53.33 C106.666,59.218 111.445,63.997 117.333,63.997 L213.333,63.997 C219.221,63.997 224,59.218 224,53.33 C224,47.442 219.221,42.663 213.333,42.663 Z" id="Path"/>
    <path d="M435.52,196.711 C432.213,191.826 425.6,190.482 420.715,193.81 L389.526,214.759 C384.641,218.044 383.339,224.679 386.625,229.564 C388.694,232.615 392.065,234.279 395.5,234.279 C397.527,234.279 399.596,233.703 401.431,232.466 L432.62,211.517 C437.504,208.231 438.805,201.597 435.52,196.711 Z" id="Path"/>
    <path d="M369.301,247.613 C361.664,241.597 327.509,206.632 306.389,184.616 C302.314,180.349 295.552,180.2 291.306,184.296 C287.039,188.371 286.911,195.133 290.986,199.379 C296.469,205.096 344.831,255.507 356.074,264.382 C358.015,265.918 360.362,266.665 362.666,266.665 C365.802,266.665 368.938,265.257 371.071,262.59 C374.72,257.981 373.931,251.261 369.301,247.613 Z" id="Path"/>
    <path d="M326.677,269.01 C313.898,258.791 281.792,224.679 274.538,216.786 C270.527,212.434 263.807,212.178 259.455,216.146 C255.124,220.135 254.826,226.898 258.815,231.229 C259.199,231.634 297.514,273 313.343,285.672 C315.306,287.229 317.674,287.997 319.999,287.997 C323.114,287.997 326.228,286.61 328.34,284.008 C332.011,279.399 331.264,272.679 326.677,269.01 Z"/>
    <path d="M284.224,290.493 C269.013,277.672 237.888,244.541 231.808,238.034 C227.776,233.725 221.013,233.49 216.725,237.522 C212.416,241.554 212.202,248.295 216.213,252.605 C224.96,261.97 254.741,293.544 270.464,306.813 C272.469,308.498 274.901,309.33 277.333,309.33 C280.362,309.33 283.392,308.029 285.504,305.533 C289.301,301.01 288.725,294.29 284.224,290.493 Z"/>
    <path d="M124.672,24.253 C106.389,6.93 33.28,1.319 11.307,0.018 C8.278,-0.131 5.483,0.871 3.35,2.898 C1.216,4.903 0,7.719 0,10.663 L0,202.663 C0,208.551 4.779,213.33 10.667,213.33 L74.667,213.33 C79.275,213.33 83.371,210.365 84.8,205.97 C86.357,201.191 123.115,88.381 127.957,32.914 C128.235,29.671 127.04,26.471 124.672,24.253 Z M66.88,191.997 L21.333,191.997 L21.333,22.098 C55.616,24.807 92.608,30.695 106.048,37.223 C100.395,83.943 74.816,166.951 66.88,191.997 Z"/>
    <path d="M501.333,21.33 C417.578,21.33 371.114,42.77 369.173,43.666 C366.4,44.967 364.33,47.378 363.477,50.301 C362.624,53.224 363.05,56.36 364.65,58.962 C377.834,80.189 419.114,198.077 427.05,226.834 C428.33,231.463 432.533,234.663 437.333,234.663 L501.333,234.663 C507.221,234.663 512,229.884 512,223.996 L512,31.996 C512,26.087 507.221,21.33 501.333,21.33 Z M490.667,213.33 L445.312,213.33 C435.2,180.391 405.333,94.503 388.672,59.005 C404.949,53.48 439.915,43.986 490.667,42.792 L490.667,213.33 Z"/>
</symbol><symbol id="ilr-nickname" viewBox="0 0 154.32 122.01">
  <polygon points="151.64 110.61 12.36 110.61 12.36 110.61 11.42 109.67 11.4 109.68 11.4 12.3 12.3 11.4 84.67 11.4 85.56 10.51 85.56 0.88 84.69 0 0.87 0 0 0.87 0 121.16 0.85 122.01 151.63 122.01 152.54 121.11 152.54 111.51 151.64 110.61"/><polygon points="68.45 80.28 68.45 30.75 67.56 29.87 56.95 29.87 56.06 30.75 56.06 90.9 56.95 91.78 96.75 91.78 97.64 90.9 97.64 82.05 96.75 81.17 69.33 81.17 68.45 80.28"/><path d="M201.77,126.81c7.08-1.77,13.27-8,13.27-17.69,0-12.38-8.84-18.58-21.23-18.58H164.62l-.88.89v60.14l.88.89h10.62l.88-.89v-23l.89-.89h8.84l1.77.89,17.69,23,1.77.89h5.31l.88-.89v-8.84l-11.5-15Zm-8-9.73H177l-.89-.89V102l.89-.88h16.8c5.31,0,8.85,1.77,8.85,8S199.12,117.08,193.81,117.08Z" transform="translate(-60.72 -60.68)"/><polygon points="31.18 30.75 31.18 90.9 32.06 91.78 42.67 91.78 43.56 90.9 43.56 30.75 42.67 29.87 32.06 29.87 31.18 30.75"/>
</symbol><symbol id="instagram" viewBox="0 0 24 24">
  <path d="M12,0 C8.74,0 8.333,0.015 7.053,0.072 C5.775,0.132 4.905,0.333 4.14,0.63 C3.351,0.936 2.681,1.347 2.014,2.014 C1.347,2.681 0.935,3.35 0.63,4.14 C0.333,4.905 0.131,5.775 0.072,7.053 C0.012,8.333 0,8.74 0,12 C0,15.26 0.015,15.667 0.072,16.947 C0.132,18.224 0.333,19.095 0.63,19.86 C0.936,20.648 1.347,21.319 2.014,21.986 C2.681,22.652 3.35,23.065 4.14,23.37 C4.906,23.666 5.776,23.869 7.053,23.928 C8.333,23.988 8.74,24 12,24 C15.26,24 15.667,23.985 16.947,23.928 C18.224,23.868 19.095,23.666 19.86,23.37 C20.648,23.064 21.319,22.652 21.986,21.986 C22.652,21.319 23.065,20.651 23.37,19.86 C23.666,19.095 23.869,18.224 23.928,16.947 C23.988,15.667 24,15.26 24,12 C24,8.74 23.985,8.333 23.928,7.053 C23.868,5.776 23.666,4.904 23.37,4.14 C23.064,3.351 22.652,2.681 21.986,2.014 C21.319,1.347 20.651,0.935 19.86,0.63 C19.095,0.333 18.224,0.131 16.947,0.072 C15.667,0.012 15.26,0 12,0 Z M12,2.16 C15.203,2.16 15.585,2.176 16.85,2.231 C18.02,2.286 18.655,2.48 19.077,2.646 C19.639,2.863 20.037,3.123 20.459,3.542 C20.878,3.962 21.138,4.361 21.355,4.923 C21.519,5.345 21.715,5.98 21.768,7.15 C21.825,8.416 21.838,8.796 21.838,12 C21.838,15.204 21.823,15.585 21.764,16.85 C21.703,18.02 21.508,18.655 21.343,19.077 C21.119,19.639 20.864,20.037 20.444,20.459 C20.025,20.878 19.62,21.138 19.064,21.355 C18.644,21.519 17.999,21.715 16.829,21.768 C15.555,21.825 15.18,21.838 11.97,21.838 C8.759,21.838 8.384,21.823 7.111,21.764 C5.94,21.703 5.295,21.508 4.875,21.343 C4.306,21.119 3.915,20.864 3.496,20.444 C3.075,20.025 2.806,19.62 2.596,19.064 C2.431,18.644 2.237,17.999 2.176,16.829 C2.131,15.569 2.115,15.18 2.115,11.985 C2.115,8.789 2.131,8.399 2.176,7.124 C2.237,5.954 2.431,5.31 2.596,4.89 C2.806,4.32 3.075,3.93 3.496,3.509 C3.915,3.09 4.306,2.82 4.875,2.611 C5.295,2.445 5.926,2.25 7.096,2.19 C8.371,2.145 8.746,2.13 11.955,2.13 L12,2.16 L12,2.16 Z M12,5.838 C8.595,5.838 5.838,8.598 5.838,12 C5.838,15.405 8.598,18.162 12,18.162 C15.405,18.162 18.162,15.402 18.162,12 C18.162,8.595 15.402,5.838 12,5.838 Z M12,16 C9.79,16 8,14.21 8,12 C8,9.79 9.79,8 12,8 C14.21,8 16,9.79 16,12 C16,14.21 14.21,16 12,16 Z M19.846,5.595 C19.846,6.39 19.2,7.035 18.406,7.035 C17.611,7.035 16.966,6.389 16.966,5.595 C16.966,4.801 17.612,4.15599884 18.406,4.15599884 C19.199,4.155 19.846,4.801 19.846,5.595 Z"/>
</symbol><symbol id="mortarboard" viewBox="0 0 512 512">
    <path d="M482,334.582031 L482,128.613281 L502.25,121.050781 C508.101562,118.867188 511.988281,113.277344 512.000027,107.027344 C512.011719,100.777344 508.144531,95.175781 502.300781,92.96875 L261.300781,1.96875 C257.882812,0.675781 254.117188,0.675781 250.703125,1.96875 L9.703125,92.96875 C3.851562,95.175781 -0.0117188,100.777344 -2.65865823e-05,107.027344 C0.0117188,113.277344 3.898438,118.867188 9.753906,121.050781 L91,151.394531 L91,260.75 C91,266.882812 94.734375,272.398438 100.429688,274.675781 C150.128906,294.558594 202.472656,304.636719 256,304.636719 C309.527344,304.636719 361.871094,294.558594 411.570312,274.675781 C417.265625,272.398438 421,266.882812 421,260.75 L421,151.394531 L452,139.816406 L452,334.582031 C434.542969,340.773438 422,357.445312 422,377 C422,388.515625 426.355469,399.03125 433.496094,407 C426.355469,414.96875 422,425.484375 422,437 L422,498 C422,506.285156 428.714844,513 437,513 L497,513 C505.285156,513 512.000027,506.285156 512.000027,498 L512.000027,437 C512.000027,425.484375 507.644531,414.96875 500.503906,407 C507.648438,399.03125 512.000027,388.515625 512.000027,377 C512.000027,357.445312 499.460938,340.773438 482,334.582031 Z M256,32.035156 L454.332031,106.921875 C445.550781,110.203125 264.746094,177.722656 256,180.988281 C249.394531,178.523438 71.902344,112.238281 57.667969,106.921875 L256,32.035156 Z M391,250.457031 C303.554688,282.867188 208.445312,282.867188 121,250.457031 L121,162.597656 L250.753906,211.054688 C254.136719,212.316406 257.863281,212.316406 261.25,211.054688 L391,162.597656 L391,250.457031 Z M467,362 C475.269531,362 482,368.730469 482,377 C482,385.273438 475.269531,392 467,392 C458.730469,392 452,385.273438 452,377 C452,368.730469 458.730469,362 467,362 Z M482,483 L452,483 L452,437 C452,428.730469 458.730469,422 467,422 C475.269531,422 482,428.730469 482,437 L482,483 Z"/>
</symbol><symbol id="news-phone" viewBox="0 0 312 512">
    <path d="M265.003906,0 L46.875,0 C21.027344,0 -2.84217094e-14,21.027344 -2.84217094e-14,46.875 L-2.84217094e-14,465.125 C-2.84217094e-14,490.972656 21.027344,512 46.875,512 L265.003906,512 C290.847656,512 311.878906,490.972656 311.878906,465.125 L311.878906,46.875 C311.878906,21.027344 290.851562,0 265.003906,0 Z M281.878906,465.125 C281.878906,474.429688 274.308594,482 265.003906,482 L46.875,482 C37.570312,482 30,474.429688 30,465.125 L30,421.441406 L281.878906,421.441406 L281.878906,465.125 Z M281.878906,391.441406 L30,391.441406 L30,88.425781 L281.878906,88.425781 L281.878906,391.441406 Z M281.878906,58.425781 L30,58.425781 L30,46.875 C30,37.570312 37.570312,30 46.875,30 L265.003906,30 C274.308594,30 281.878906,37.570312 281.878906,46.875 L281.878906,58.425781 Z"/>
    <path d="M170.9375,451.234375 C170.9375,442.925781 164.222656,436.191406 155.9375,436.191406 C147.65625,436.191406 140.9375,442.925781 140.9375,451.234375 C140.9375,459.542969 147.65625,466.277344 155.9375,466.277344 C164.222656,466.277344 170.9375,459.542969 170.9375,451.234375 Z"/>
    <path d="M155.9375,348.082031 C215.429688,348.082031 263.828125,299.566406 263.828125,239.933594 C263.828125,180.300781 215.429688,131.785156 155.9375,131.785156 C96.449219,131.785156 48.050781,180.300781 48.050781,239.933594 C48.050781,299.566406 96.449219,348.082031 155.9375,348.082031 Z M232.375,224.933594 L206.238281,224.933594 C205.398438,206.828125 203.050781,189.847656 199.390625,175.105469 C216.199219,186.484375 228.351562,204.265625 232.375,224.933594 Z M206.238281,254.933594 L232.375,254.933594 C228.351562,275.601562 216.199219,293.382812 199.390625,304.761719 C203.050781,290.015625 205.398438,273.039062 206.238281,254.933594 Z M148.421875,162.152344 C150.898438,161.914062 153.402344,161.78125 155.9375,161.78125 C158.476562,161.78125 160.980469,161.914062 163.453125,162.152344 C170.351562,176.988281 174.902344,199.65625 176.203125,224.933594 L135.675781,224.933594 C136.976562,199.65625 141.527344,176.988281 148.421875,162.152344 Z M176.203125,254.933594 C174.902344,280.210938 170.351562,302.878906 163.453125,317.710938 C160.980469,317.949219 158.476562,318.082031 155.9375,318.082031 C153.402344,318.082031 150.898438,317.949219 148.421875,317.710938 C141.527344,302.875 136.976562,280.210938 135.675781,254.933594 L176.203125,254.933594 Z M112.488281,175.105469 C108.828125,189.847656 106.480469,206.828125 105.640625,224.933594 L79.503906,224.933594 C83.527344,204.265625 95.679688,186.484375 112.488281,175.105469 Z M105.640625,254.933594 C106.480469,273.039062 108.828125,290.015625 112.488281,304.761719 C95.679688,293.382812 83.527344,275.601562 79.503906,254.933594 L105.640625,254.933594 Z"/>
</symbol><symbol id="newsletter" viewBox="0 0 406 512">
    <path d="M314.061,215.37 L203,296.149 L91.939,215.37 L79.395,232.629 L196.728,317.962 C198.551,319.287 200.747,319.999001 203,319.999001 C205.253,319.999001 207.449,319.286 209.272,317.962 L326.605,232.629 L314.061,215.37 Z" id="Path"/>
    <rect id="Rectangle" x="64.333" y="64" width="106.667" height="21.333"/>
    <rect id="Rectangle" x="64.333" y="106.667" width="21.333" height="21.333"/>
    <rect id="Rectangle" x="107" y="106.667" width="21.333" height="21.333"/>
    <path d="M402.541,88.459 L317.208,3.125 C315.208,1.125 312.495,0 309.667,0 L32.333,0 C14.66,0 0.333,14.327 0.333,32 L0.333,480 C0.333,497.673 14.66,512 32.333,512 L373.666,512 C391.339,512 405.666,497.673 405.666,480 L405.666,96 C405.666,93.171 404.542,90.459 402.541,88.459 Z M384.333,480 C384.333,485.891 379.557,490.667 373.666,490.667 L32.333,490.667 C26.442,490.667 21.666,485.891 21.666,480 L21.666,32 C21.666,26.109 26.442,21.333 32.333,21.333 L305.25,21.333 L384.333,100.416 L384.333,480 Z"/>
    <path d="M331,85.333 C325.109,85.333 320.333,80.557 320.333,74.666 L320.333,10.666 L299,10.666 L299,74.666 C299,92.339 313.327,106.666 331,106.666 L352.333,106.666 L352.333,85.333 L331,85.333 Z"/>
    <path d="M309.667,202.667 L96.333,202.667 C78.66,202.667 64.333,216.994 64.333,234.667 L64.333,384 C64.333,401.673 78.66,416 96.333,416 L309.666,416 C327.339,416 341.666,401.673 341.666,384 L341.666,234.667 C341.666,216.994 327.34,202.667 309.667,202.667 Z M320.333,384 C320.333,389.891 315.557,394.667 309.666,394.667 L96.333,394.667 C90.442,394.667 85.666,389.891 85.666,384 L85.666,234.667 C85.666,228.776 90.442,224 96.333,224 L309.666,224 C315.557,224 320.333,228.776 320.333,234.667 L320.333,384 Z"/>
</symbol><symbol id="play" viewBox="0 0 200 200">
    <title>Play video</title>
    <circle cx="100" cy="100" r="90" fill="none" stroke-width="15"/>
    <polygon points="70, 55 70, 145 145, 100"/>
</symbol><symbol id="speech-bubble" viewBox="0 0 225 227">
    <path d="M225,43.425 L225,144.726 C225,168.711 205.768,188.174 181.783,188.174 L65.066,188.174 C62.784,188.174 60.905,188.161 59.333,188.128 C57.686,188.094 55.832,188.081 55.109,188.161 C54.356,188.661 52.51,190.352 50.731,191.991 C50.026,192.64 49.228,193.354 48.367,194.14 L15.345,224.238 C12.711,226.641 8.814,227.263 5.552,225.825 C2.29,224.386 0,221.156 0,217.591 L0,122.174 L0,104.174 L0,43.425 C0,19.439 19.885,0.174 43.871,0.174 L181.784,0.174 C205.768,0.174 225,19.439 225,43.425 Z M207,43.425 C207,29.364 195.843,18.174 181.783,18.174 L43.871,18.174 C29.81,18.174 18,29.364 18,43.425 L18,113.258 L18,197.192 L36.095,180.839 C36.933,180.074 37.872,179.374 38.557,178.742 C46.82,171.128 48.934,169.911 59.712,170.133 C61.182,170.164 62.933,170.175 65.066,170.175 L181.783,170.175 C195.843,170.175 207,158.787 207,144.727 L207,43.425 Z"/>
</symbol><symbol id="student" viewBox="0 0 411 483">
    <path d="M203.7,260.2 C204.2,260.2 204.7,260.2 205.3,260.2 C205.5,260.2 205.7,260.2 205.9,260.2 C206.2,260.2 206.6,260.2 206.9,260.2 C236.2,259.7 259.9,249.4 277.4,229.7 C315.9,186.3 309.5,111.9 308.8,104.8 C306.3,51.5 281.1,26 260.3,14.1 C244.8,5.2 226.7,0.4 206.5,0 L205.8,0 C205.7,0 205.5,0 205.4,0 L204.8,0 C193.7,0 171.9,1.8 151,13.7 C130,25.6 104.4,51.1 101.9,104.8 C101.2,111.9 94.8,186.3 133.3,229.7 C150.7,249.4 174.4,259.7 203.7,260.2 Z M128.6,107.3 C128.6,107 128.7,106.7 128.7,106.5 C132,34.8 182.9,27.1 204.7,27.1 L205.1,27.1 C205.3,27.1 205.6,27.1 205.9,27.1 C232.9,27.7 278.8,38.7 281.9,106.5 C281.9,106.8 281.9,107.1 282,107.3 C282.1,108 289.1,176 257.3,211.8 C244.7,226 227.9,233 205.8,233.2 C205.6,233.2 205.5,233.2 205.3,233.2 L205.3,233.2 C205.1,233.2 205,233.2 204.8,233.2 C182.8,233 165.9,226 153.4,211.8 C121.7,176.2 128.5,107.9 128.6,107.3 Z"/>
    <path d="M410.8,383.6 C410.8,383.5 410.8,383.4 410.8,383.3 C410.8,382.5 410.7,381.7 410.7,380.8 C410.1,361 408.8,314.7 365.4,299.9 C365.1,299.8 364.7,299.7 364.4,299.6 C319.3,288.1 281.8,262.1 281.4,261.8 C275.3,257.5 266.9,259 262.6,265.1 C258.3,271.2 259.8,279.6 265.9,283.9 C267.6,285.1 307.4,312.8 357.2,325.6 C380.5,333.9 383.1,358.8 383.8,381.6 C383.8,382.5 383.8,383.3 383.9,384.1 C384,393.1 383.4,407 381.8,415 C365.6,424.2 302.1,456 205.5,456 C109.3,456 45.4,424.1 29.1,414.9 C27.5,406.9 26.8,393 27,384 C27,383.2 27.1,382.4 27.1,381.5 C27.8,358.7 30.4,333.8 53.7,325.5 C103.5,312.7 143.3,284.9 145,283.8 C151.1,279.5 152.6,271.1 148.3,265 C144,258.9 135.6,257.4 129.5,261.7 C129.1,262 91.8,288 46.5,299.5 C46.1,299.6 45.8,299.7 45.5,299.8 C2.1,314.7 0.8,361 0.2,380.7 C0.2,381.6 0.2,382.4 0.1,383.2 C0.1,383.3 0.1,383.4 0.1,383.5 C1.38777878e-17,388.7 -0.1,415.4 5.2,428.8 C6.2,431.4 8,433.6 10.4,435.1 C13.4,437.1 85.3,482.9 205.6,482.9 C325.9,482.9 397.8,437 400.8,435.1 C403.1,433.6 405,431.4 406,428.8 C411,415.5 410.9,388.8 410.8,383.6 Z"/>
</symbol><symbol id="tower" viewBox="0 0 22 32"><title>Cornell University Tower</title><path class="icon-path" d="M16,30A5,5,0,0,0,6,30h4V27h2v2h2v1Zm2,0V12H4V30a7,7,0,0,1,14,0ZM3.83,10H18.17L11,2.83ZM20,12V32H2V12H1.41a1,1,0,0,1-.7-1.71L10.29.71a1,1,0,0,1,1.42,0l9.58,9.58a1,1,0,0,1-.7,1.71ZM10,14h2v7H10Zm3,0h2v7H13ZM7,14H9v7H7Z"/></symbol></svg>