<svg id="Layer_1" data-name="Layer 1" xmlns="http://www.w3.org/2000/svg" viewBox="0 0 432 122.01"><defs><style>.cls-1{fill:#231f20;}</style></defs><title>ILR-wordmark</title><polygon class="cls-1" points="0.87 0 0 0.87 0 121.17 0.85 122.01 305.25 122.01 306.16 121.11 306.16 111.51 305.26 110.61 12.36 110.61 12.36 110.61 11.42 109.67 11.4 109.69 11.4 12.3 12.3 11.4 84.67 11.4 85.57 10.51 85.57 0.88 84.69 0 0.87 0"/><polygon class="cls-1" points="43.56 90.9 43.56 30.75 42.67 29.87 32.06 29.87 31.18 30.75 31.18 90.9 32.06 91.78 42.67 91.78 43.56 90.9"/><polygon class="cls-1" points="97.64 90.9 97.64 82.06 96.75 81.17 69.33 81.17 68.45 80.29 68.45 30.75 67.56 29.87 56.95 29.87 56.06 30.75 56.06 90.9 56.95 91.78 96.75 91.78 97.64 90.9"/><path class="cls-1" d="M202.78,109.12c0,6.19-3.54,8-8.84,8H177.13l-.88-.89V102l.88-.88h16.81c5.3,0,8.84,1.77,8.84,8m12.39,0c0-12.39-8.85-18.58-21.23-18.58H164.75l-.89.89v60.14l.89.89h10.61l.89-.89v-23l.88-.89H186l1.77.89,17.69,23,1.77.89h5.3l.89-.89v-8.84l-11.5-15v-.88c7.07-1.77,13.27-8,13.27-17.69" transform="translate(-60.84 -60.67)"/><path class="cls-1" d="M292.12,134.77c0-12.39-9.73-17.69-22.11-19.46s-15.93-3.54-15.93-8.85c0-3.53,2.66-6.19,10.62-6.19,9.73,0,12.38,2.66,12.38,8l.89.89h10.61l.88-.89c0-10.61-7.07-18.57-23.88-18.57s-23.88,8-23.88,16.8c0,12.39,9.73,16.81,22.11,18.58s15.92,3.54,15.92,9.73c0,5.31-4.42,8-12.38,8-10.61,0-14.15-3.54-14.15-9.73l-.89-.89H241.7l-.88.89c0,11.5,8,20.34,25.65,20.34,18.57,0,25.65-8.84,25.65-18.57" transform="translate(-60.84 -60.67)"/><path class="cls-1" d="M307,130.35c0-8,3.54-12.39,9.73-12.39,4.43,0,7.08,1.77,8,4.42l.89.89h10.61l.89-.89c-1.77-10.61-10.62-15-20.35-15-13.26,0-22.11,8.84-22.11,23s8.85,23,22.11,23c9.73,0,18.58-4.42,20.35-15l-.89-.89H325.58l-.89.89c-.88,2.65-3.53,4.42-8,4.42-6.19,0-9.73-4.42-9.73-12.38" transform="translate(-60.84 -60.67)"/><path class="cls-1" d="M382.34,151.57V125c0-10.62-6.19-17.69-16.81-17.69a15.58,15.58,0,0,0-11.5,4.42h-.88V91.43l-.89-.89H341.65l-.88.89v60.14l.88.89h10.61l.89-.89V129.46c0-8,3.54-11.5,9.73-11.5,5.31,0,7.07,3.54,7.07,8v25.65l.89.89h10.61Z" transform="translate(-60.84 -60.67)"/><path class="cls-1" d="M417.87,130.35c0,8-3.54,12.38-9.73,12.38s-9.73-4.42-9.73-12.38S402,118,408.14,118s9.73,4.43,9.73,12.39m12.38,0c0-14.16-8.84-23-22.11-23s-22.11,8.84-22.11,23,8.84,23,22.11,23,22.11-8.84,22.11-23" transform="translate(-60.84 -60.67)"/><path class="cls-1" d="M464.08,130.35c0,8-3.54,12.38-9.73,12.38s-9.73-4.42-9.73-12.38S448.15,118,454.35,118s9.73,4.43,9.73,12.39m12.38,0c0-14.16-8.85-23-22.11-23s-22.12,8.84-22.12,23,8.85,23,22.12,23,22.11-8.84,22.11-23" transform="translate(-60.84 -60.67)"/><polygon class="cls-1" points="432 90.9 432 30.75 431.12 29.87 420.5 29.87 419.62 30.75 419.62 90.9 420.5 91.78 431.12 91.78 432 90.9"/></svg>