<svg id="Layer_1" data-name="Layer 1" xmlns="http://www.w3.org/2000/svg" viewBox="0 0 154.32 122.01"><defs><style>.cls-1{fill:#fff;}</style></defs><title>ILR-nickname-reveresed</title><polygon class="cls-1" points="151.64 110.61 12.36 110.61 12.36 110.61 11.42 109.67 11.4 109.68 11.4 12.3 12.3 11.4 84.67 11.4 85.56 10.51 85.56 0.88 84.69 0 0.87 0 0 0.87 0 121.16 0.85 122.01 151.63 122.01 152.54 121.11 152.54 111.51 151.64 110.61"/><polygon class="cls-1" points="68.45 80.28 68.45 30.75 67.56 29.87 56.95 29.87 56.06 30.75 56.06 90.9 56.95 91.78 96.75 91.78 97.64 90.9 97.64 82.05 96.75 81.17 69.33 81.17 68.45 80.28"/><path class="cls-1" d="M201.77,126.81c7.08-1.77,13.27-8,13.27-17.69,0-12.38-8.84-18.58-21.23-18.58H164.62l-.88.89v60.14l.88.89h10.62l.88-.89v-23l.89-.89h8.84l1.77.89,17.69,23,1.77.89h5.31l.88-.89v-8.84l-11.5-15Zm-8-9.73H177l-.89-.89V102l.89-.88h16.8c5.31,0,8.85,1.77,8.85,8S199.12,117.08,193.81,117.08Z" transform="translate(-60.72 -60.68)"/><polygon class="cls-1" points="31.18 30.75 31.18 90.9 32.06 91.78 42.67 91.78 43.56 90.9 43.56 30.75 42.67 29.87 32.06 29.87 31.18 30.75"/></svg>