<svg id="Layer_4" data-name="Layer 4" xmlns="http://www.w3.org/2000/svg" viewBox="0 0 146 52"><defs><style>.cls-1{fill:#222;}.cls-2{fill:#b31b1b;}</style></defs><title>union</title><path class="cls-1" d="M0,16.17H13.13V36c0,2,.83,3,2.49,3s2.46-1,2.46-3V16.17H31.21V35.76A16,16,0,0,1,26.68,47.3,14.81,14.81,0,0,1,15.59,52a14.91,14.91,0,0,1-12-5.46Q0,42.28,0,34.7Z"/><path class="cls-1" d="M63.09,50.8H50V31q0-3-2.49-3T45,31V50.8H31.88V31.21a16,16,0,0,1,4.53-11.57,14.8,14.8,0,0,1,11.09-4.7,14.85,14.85,0,0,1,12,5.46q3.56,4.26,3.55,11.87Z"/><rect class="cls-1" x="63.75" y="15.68" width="13.13" height="35.12"/><path class="cls-2" d="M70.35,0A6.45,6.45,0,0,1,75,1.88a6,6,0,0,1,2,4.46,6,6,0,0,1-1.84,4.51,7.22,7.22,0,0,1-9.45,0,6,6,0,0,1-1.84-4.51,6,6,0,0,1,1.95-4.46A6.42,6.42,0,0,1,70.35,0Z"/><path class="cls-2" d="M95.86,25.6a6.88,6.88,0,0,1,5,2.14,7.15,7.15,0,1,1-10,0A6.86,6.86,0,0,1,95.86,25.6Z"/><path class="cls-1" d="M146,50.8H132.87V31q0-3-2.49-3t-2.46,3V50.8H114.79V31.21a16,16,0,0,1,4.53-11.57,15.73,15.73,0,0,1,23.13.76Q146,24.66,146,32.27Z"/><path class="cls-1" d="M96.22,14.94A17.31,17.31,0,0,1,109,20.31a17.63,17.63,0,0,1,5.32,12.88,17.57,17.57,0,0,1-5.39,13,18.46,18.46,0,0,1-26,0,17.55,17.55,0,0,1-5.41-12.94,17.41,17.41,0,0,1,5.41-13A18.37,18.37,0,0,1,96.22,14.94Zm-.35,13a4.79,4.79,0,0,0-3.58,1.53,5.45,5.45,0,0,0,0,7.49,4.77,4.77,0,0,0,3.56,1.55A4.84,4.84,0,0,0,99.47,37a5.48,5.48,0,0,0,0-7.49A4.84,4.84,0,0,0,95.87,27.94Z"/></svg>