<svg id="Layer_1" data-name="Layer 1" xmlns="http://www.w3.org/2000/svg" xmlns:xlink="http://www.w3.org/1999/xlink"
  viewBox="0 0 380 87" aria-labelledby="lockup-title lockup-desc" role="img">
  <defs>
    <style>
      .cls-1 {
        fill: #fff;
      }

      .cls-2 {
        fill: none;
        stroke: #222;
        stroke-width: 0.5px;
      }

      .cls-3 {
        fill: #222;
      }

      .cls-4 {
        fill: #a02629;
      }

      .cls-5 {
        mask: url(#mask);
      }

      .cls-6 {
        mask: url(#mask-2-2);
      }

    </style>
    <mask id="mask" x="0.06" y="0" width="86.96" height="87" maskUnits="userSpaceOnUse">
      <g id="mask-2">
        <polygon id="path-1" class="cls-1" points="0.06 0 87.02 0 87.02 87 0.06 87 0.06 0" />
      </g>
    </mask>
    <mask id="mask-2-2" x="0" y="0" width="87.02" height="87" maskUnits="userSpaceOnUse">
      <g id="mask-2-3" data-name="mask-2">
        <polygon id="path-1-2" data-name="path-1" class="cls-1" points="0.06 0 87.02 0 87.02 87 0.06 87 0.06 0" />
      </g>
    </mask>
  </defs>
  <title id="lockup-title">Logo for Cornell University and the ILR School</title>
  <desc id="lockup-desc">The Cornell University logo seal and the ILR School logo placed side-by-side.</desc>
  <g id="ILR_Cornell_Lockup_Positive-Simple" data-name="ILR Cornell Lockup Positive-Simple">
    <g id="Group-3">
      <path id="Stroke-1" class="cls-2" d="M108.79,0V86.8" />
    </g>
    <path id="Fill-4" class="cls-3"
      d="M138.3,60.32V22.9l-.55-.55h-6.6l-.55.55V60.32l.55.55h6.6Zm33.65,0v-5.5l-.55-.56H154.34l-.55-.54V22.9l-.55-.55h-6.61l-.55.55V60.32l.55.55H171.4Zm35.27-26.41c0-7.71-5.5-11.56-13.21-11.56H175.85l-.55.55V60.32l.55.55h6.61l.55-.55V46l.55-.55h5.5l1.1.55,11,14.31,1.1.55h3.3l.55-.55v-5.5L199,45.46v-.55A10.89,10.89,0,0,0,207.22,33.91Zm-7.7,0c0,3.85-2.2,5-5.51,5H183.56l-.55-.55V29.5l.55-.54H194C197.32,29,199.52,30.05,199.52,33.91Zm55.59,16c0-7.7-6.06-11-13.76-12.1s-9.91-2.2-9.91-5.5c0-2.21,1.65-3.85,6.6-3.85,6.06,0,7.71,1.64,7.71,4.95l.55.55h6.6l.55-.55c0-6.61-4.4-11.56-14.86-11.56s-14.86,4.95-14.86,10.46c0,7.7,6.06,10.45,13.76,11.55s9.91,2.2,9.91,6c0,3.31-2.75,5-7.71,5-6.6,0-8.8-2.2-8.8-6.06l-.55-.55h-6.61l-.55.55c0,7.16,5,12.66,16,12.66C250.7,61.42,255.11,55.92,255.11,49.86Zm9.26-2.75c0-5,2.2-7.7,6.05-7.7,2.75,0,4.4,1.1,4.95,2.75l.55.55h6.61l.55-.55c-1.1-6.6-6.61-9.35-12.66-9.35-8.25,0-13.76,5.5-13.76,14.3s5.51,14.31,13.76,14.31c6.05,0,11.56-2.75,12.66-9.36l-.55-.55h-6.61l-.55.55c-.55,1.66-2.2,2.76-4.95,2.76C266.57,54.82,264.37,52.06,264.37,47.11Zm46.87,13.21V43.81c0-6.6-3.85-11-10.46-11a9.69,9.69,0,0,0-7.15,2.75h-.55V22.9l-.55-.55h-6.61l-.55.55V60.32l.55.55h6.61l.55-.55V46.56c0-5,2.2-7.15,6.05-7.15,3.31,0,4.41,2.2,4.41,5v16l.55.55h6.6Zm29.81-13.21c0-8.8-5.5-14.3-13.75-14.3s-13.76,5.5-13.76,14.3S319,61.42,327.3,61.42,341.05,55.92,341.05,47.11Zm-7.7,0c0,5-2.2,7.71-6.05,7.71s-6.06-2.76-6.06-7.71,2.2-7.7,6.06-7.7S333.35,42.16,333.35,47.11Zm36.46,0c0-8.8-5.51-14.3-13.76-14.3s-13.76,5.5-13.76,14.3,5.5,14.31,13.76,14.31S369.81,55.92,369.81,47.11Zm-7.71,0c0,5-2.2,7.71-6.05,7.71S350,52.06,350,47.11s2.2-7.7,6.06-7.7S362.1,42.16,362.1,47.11ZM380,60.32V22.9l-.55-.55h-6.61l-.55.55V60.32l.55.55h6.61Z" />
    <a xlink:href="/">
      <rect x="120" width="267" height="87" fill="rgba(0,0,0,0)" />
    </a>
    <path id="Fill-5" class="cls-4"
      d="M25,39.86H42.76v3.89a7.43,7.43,0,0,0-2-.07l-1.47.15c-.79.09-1.48.16-2.06.17-.75,0-1.34,0-1.84,0h-.91l-.72,0v3.75H32v2h1.75v3.76H32v2h1.75v4.17l.69,0s1,.05,2.22,0,2.12-.11,2.89-.18S41,59.55,42,59.55a.71.71,0,0,1,.69.36l.1.11V70.28C38.46,68.17,25,60.63,25,49ZM25,24H62.3V37.91H25ZM44.42,58.28v-13a1.74,1.74,0,0,1,.37-.13,6.06,6.06,0,0,1,1.67-.06c.53,0,1,.09,1.46.15.82.08,1.53.16,2.18.18h2V58.4H50.72c-1.19,0-2-.1-2.78-.17a23.68,23.68,0,0,0-2.59-.15A2.25,2.25,0,0,0,44.42,58.28ZM62.31,49.5c0,11.25-13.82,18.87-17.89,20.87V60.14l.21-.21a.79.79,0,0,1,.72-.38c.94,0,1.65.06,2.45.13s1.65.15,2.89.18,2.18,0,2.22,0l.69,0V56h1.62v-2H53.6v-3.7h1.62v-2H53.6V44l-.72,0H52c-.5,0-1.09,0-1.84,0-.58,0-1.26-.08-2.05-.17l-1.47-.15a7.7,7.7,0,0,0-2.14.09l0,0V39.86H62.3ZM42.76,58.21a2.33,2.33,0,0,0-.74-.13H42c-1,0-1.75.07-2.54.14s-1.6.15-2.79.18H35.22V45.48h2c.65,0,1.36-.1,2.18-.19l1.47-.14a5.82,5.82,0,0,1,1.64.06l.21.06Zm-9.49,8.42a47.94,47.94,0,0,0,10,6.06l.37.16.38-.16a49.94,49.94,0,0,0,10-6c6.65-5.2,10.17-11.13,10.17-17.14V22H23.09V49C23.09,55.29,26.61,61.37,33.27,66.63Z" />
    <path id="Fill-6" class="cls-4"
      d="M39.13,32.35c0,.37-.47.75-.86,1-.9.6-2.25,1.37-2.89,1.73-.61-.37-1.88-1.13-2.77-1.73-.59-.39-.93-.78-.95-1.06,0-.11,0-1,0-2.11h7.49C39.14,31.33,39.14,32.22,39.13,32.35Zm-7.47-5.51h7.47c0,.61,0,1.26,0,1.89H31.65C31.65,28.1,31.65,27.45,31.66,26.84Zm8.93-1.46H30.19v.73c0,2.27,0,6.11,0,6.29a3,3,0,0,0,1.59,2.17c1.26.85,3.13,1.94,3.21,2l.35.21.36-.2c.09,0,2.11-1.15,3.37-2,1.48-1,1.5-1.88,1.51-2.17s0-3.51,0-6.29Z" />
    <path id="Fill-7" class="cls-4"
      d="M52.78,27.33,49.12,30V26.53h7.71c0,1.14,0,2.44,0,3.51Zm4,4.89c0,.37-.49.77-.89,1-.93.62-2.33,1.41-3,1.78-.62-.37-1.92-1.16-2.85-1.78-.28-.19-1-.68-1-1.11,0,0,0-.17,0-.38l3.69-2.66,4,2.68C56.84,32,56.83,32.17,56.83,32.22Zm1.46-7.15H47.66v.73c0,2.85,0,6.29,0,6.46a3.06,3.06,0,0,0,1.63,2.21c1.28.87,3.2,2,3.28,2l.36.21.36-.2c.08,0,2.16-1.17,3.45-2.05,1.52-1,1.54-1.92,1.54-2.22s0-3.6,0-6.45Z" />
    <path id="Fill-8" class="cls-4"
      d="M46.32,48.22l.7.07c.47.05.88.09,1.23.1l2.16.06,0-1.46-2.15-.06c-.32,0-.69,0-1.12-.09l-.71-.07a3.33,3.33,0,0,0-.54,0L46,48.21a1.87,1.87,0,0,1,.33,0" />
    <path id="Fill-9" class="cls-4"
      d="M48.3,51c-.3,0-.66,0-1.06-.09l-.76-.08a4.79,4.79,0,0,0-.52,0l0,1.46a2.24,2.24,0,0,1,.35,0l.76.07c.44,0,.84.09,1.18.1l1.59,0h.56l0-1.45-.56,0L48.3,51" />
    <path id="Fill-10" class="cls-4"
      d="M48.3,55c-.31,0-.67-.05-1.08-.1l-.74-.07a3.25,3.25,0,0,0-.53,0l0,1.45a2.12,2.12,0,0,1,.34,0l.74.07c.45,0,.85.09,1.2.1l.6,0,1.55,0,0-1.47-1.54,0H48.3" />
    <path id="Fill-11" class="cls-4"
      d="M39.06,48.37c.36,0,.77,0,1.24-.1l.7-.07a1.85,1.85,0,0,1,.33,0l0-1.47-.49,0-.72.07c-.42,0-.79.09-1.11.09L36.88,47l0,1.46,2.15-.06" />
    <path id="Fill-12" class="cls-4"
      d="M40.15,50.86c-.42,0-.79.09-1.11.1l-2.15,0,0,1.47,2.15-.06c.36,0,.77-.05,1.24-.1l.69-.08c.11,0,.22,0,.32,0l.06-1.46a4.5,4.5,0,0,0-.51,0l-.72.07" />
    <path id="Fill-13" class="cls-4"
      d="M40.15,54.9A9.89,9.89,0,0,1,39,55l-2.08.06,0,1.46,2.15-.06c.36,0,.77-.05,1.24-.1l.71-.07a1.77,1.77,0,0,1,.32,0l0-1.45a4,4,0,0,0-.49,0l-.72.07" />
    <path id="Fill-14" class="cls-4"
      d="M6.59,43.73c1.83,0,2.95-1.16,3.09-3.2a5.87,5.87,0,0,0-.11-1.38l0-.18H8l.14.31a3.08,3.08,0,0,1,.15,1.18,1.71,1.71,0,0,1-2,1.62,1.73,1.73,0,0,1-1.8-1.84,2.12,2.12,0,0,1,.36-1.12l.19-.29L3.59,38.6l-.07.15a4,4,0,0,0-.35,1.37,3.11,3.11,0,0,0,3.14,3.6h.28" />
    <path id="Fill-15" class="cls-4"
      d="M5.87,33.1a1.32,1.32,0,0,1,1.41-1,3.06,3.06,0,0,1,.78.11,2.25,2.25,0,0,1,1.36.92,1.22,1.22,0,0,1,.09,1,1.31,1.31,0,0,1-1.4,1A3.14,3.14,0,0,1,7.28,35C6.45,34.73,5.58,34.1,5.87,33.1Zm1,3.46A4.53,4.53,0,0,0,8,36.73a2.82,2.82,0,0,0,2.82-2.22,3,3,0,0,0-.2-2.3,3.3,3.3,0,0,0-2.11-1.53,4.19,4.19,0,0,0-1.13-.17,2.8,2.8,0,0,0-2.82,2.22A2.92,2.92,0,0,0,6.83,36.56Z" />
    <path id="Fill-16" class="cls-4"
      d="M9.85,26.43l-.08.14-1-.54.07-.14c.26-.47.53-.86,1-.63a.48.48,0,0,1,.28.3A1.35,1.35,0,0,1,9.85,26.43Zm3.28,1.93L11,27.21l.07-.13c.2-.39.35-.35.69-.31l2.1.26.83-1.56-2.8-.29a1.61,1.61,0,0,0-.54,0,1.58,1.58,0,0,0-.85-1.46,2,2,0,0,0-.9-.25c-1,0-1.56,1-2,1.94l-.73,1.37,5.57,3Z" />
    <polyline id="Fill-17" class="cls-4"
      points="16.61 22.87 13.75 20.5 17.81 21.42 18.94 20.06 14.08 16.03 13.09 17.23 15.96 19.6 11.9 18.66 10.76 20.04 15.62 24.06 16.61 22.87" />
    <polyline id="Fill-18" class="cls-4"
      points="23.63 16.05 22.77 14.99 21.01 16.43 20.25 15.48 21.85 14.18 20.99 13.12 19.39 14.43 18.75 13.64 20.5 12.22 19.64 11.16 16.65 13.6 20.63 18.49 23.63 16.05" />
    <polyline id="Fill-19" class="cls-4"
      points="28.87 12.92 28.2 11.73 26.25 12.83 23.82 8.52 22.42 9.31 25.51 14.81 28.87 12.92" />
    <polyline id="Fill-20" class="cls-4"
      points="34.17 10.89 33.7 9.61 31.59 10.38 29.91 5.73 28.4 6.27 30.55 12.2 34.17 10.89" />
    <path id="Fill-21" class="cls-4"
      d="M40.53,9.85l.38,0A2.73,2.73,0,0,0,42.83,9a2.42,2.42,0,0,0,.46-1.83l-.32-4-1.6.13.3,3.6c.1,1.28-.41,1.48-.86,1.52h-.12c-.37,0-.89-.14-1-1.36l-.29-3.6-1.6.13.33,4a2.18,2.18,0,0,0,2.39,2.24" />
    <polyline id="Fill-22" class="cls-4"
      points="47.75 6.08 49.12 10.02 50.87 10.26 51.72 4 50.19 3.8 49.69 7.49 48.33 3.55 46.57 3.31 45.72 9.56 47.26 9.77 47.75 6.08" />
    <polyline id="Fill-23" class="cls-4" points="56.46 5.36 54.94 4.87 53.04 10.9 54.57 11.38 56.46 5.36" />
    <polyline id="Fill-24" class="cls-4"
      points="64.37 8.9 62.93 8.18 59.89 11.27 60.56 6.98 59.04 6.2 58.1 12.81 59.65 13.59 64.37 8.9" />
    <polyline id="Fill-25" class="cls-4"
      points="65.95 17.92 66.79 16.85 65 15.45 65.75 14.49 67.37 15.77 68.21 14.69 66.58 13.42 67.21 12.63 68.98 14.01 69.83 12.94 66.79 10.56 62.9 15.54 65.95 17.92" />
    <path id="Fill-26" class="cls-4"
      d="M72.28,17.31l.11.12c.22.27.46.56.44.8a.48.48,0,0,1-.19.32.51.51,0,0,1-.35.16c-.27,0-.55-.28-.76-.52l-.11-.12Zm-3.72,3.26L70.4,19l.1.12c.24.27.24.38,0,.76l-1,1.87L70.73,23,72,20.52a1.92,1.92,0,0,0,.16-.51,1.57,1.57,0,0,0,1.66-.28c1.36-1.2.27-2.44-.52-3.34l-1-1.18-4.74,4.16Z" />
    <path id="Fill-27" class="cls-4"
      d="M74.45,25.62c-.31.18-.7-.13-.88-.42A2.62,2.62,0,0,1,73.25,24v-.33l-1.45.67.11.32a4.82,4.82,0,0,0,.53,1.3,2.35,2.35,0,0,0,1.92,1.35,1.92,1.92,0,0,0,1-.31,2.07,2.07,0,0,0,.81-2.47c-.08-.55-.13-.88.1-1a.64.64,0,0,1,.31-.09.73.73,0,0,1,.56.39,2.88,2.88,0,0,1,.35,1.06l0,.29,1.31-.59,0-.18A4.63,4.63,0,0,0,78.27,23a2,2,0,0,0-2.87-.91,2.05,2.05,0,0,0-.81,2.41c.09.59.13.94-.14,1.1" />
    <polyline id="Fill-28" class="cls-4" points="75.17 31.33 81.02 28.95 80.41 27.47 74.57 29.85 75.17 31.33" />
    <polyline id="Fill-29" class="cls-4"
      points="81.04 33.41 76.23 34.59 76.61 36.15 81.42 34.96 81.82 36.57 83.14 36.25 81.96 31.47 80.64 31.8 81.04 33.41" />
    <polyline id="Fill-30" class="cls-4"
      points="77.34 41.05 77.43 42.65 79.91 42.52 83.86 44.54 83.76 42.8 81.46 41.66 83.62 40.3 83.52 38.43 79.82 40.92 77.34 41.05" />
    <polyline id="Fill-31" class="cls-4"
      points="7.82 55.5 9.13 55.12 8.58 53.22 9.55 52.94 10.13 54.94 11.44 54.56 10.42 51.01 4.35 52.76 4.8 54.31 7.27 53.59 7.82 55.5" />
    <path id="Fill-32" class="cls-4"
      d="M10.94,61.1a2.67,2.67,0,0,1-1.16.3,1.26,1.26,0,0,1-1.19-.74,1.23,1.23,0,0,1-.08-1,2.18,2.18,0,0,1,1.17-1.15,2.6,2.6,0,0,1,1.11-.28A1.24,1.24,0,0,1,12,59a1.25,1.25,0,0,1,.08,1A2.14,2.14,0,0,1,10.94,61.1Zm2.51-.37a3,3,0,0,0-.24-2.34,2.83,2.83,0,0,0-2.59-1.76A3.78,3.78,0,0,0,9,57.05a3.36,3.36,0,0,0-1.81,1.87,3,3,0,0,0,.23,2.34A2.87,2.87,0,0,0,10,63a3.79,3.79,0,0,0,1.68-.42A3.32,3.32,0,0,0,13.45,60.73Z" />
    <path id="Fill-33" class="cls-4"
      d="M17.8,65.62,15,67.87c-.76.61-1.31.66-1.75.11a.84.84,0,0,1-.22-.66,1.66,1.66,0,0,1,.74-1l2.82-2.25-1-1.26-3.11,2.47a2.37,2.37,0,0,0-1,1.72,2.8,2.8,0,0,0,.74,1.84,2.57,2.57,0,0,0,2,1.16,2.55,2.55,0,0,0,1.57-.63l3.11-2.47-1-1.27" />
    <polyline id="Fill-34" class="cls-4"
      points="23.16 70.76 20.81 73.64 21.7 69.56 20.31 68.42 16.31 73.31 17.52 74.29 19.88 71.41 18.99 75.5 20.37 76.63 24.37 71.74 23.16 70.76" />
    <path id="Fill-35" class="cls-4"
      d="M28.14,77.43a1.72,1.72,0,0,1-1.55,1,1.75,1.75,0,0,1-.78-.18l-.39-.19L27,74.87l.39.19a1.75,1.75,0,0,1,.86,1A1.82,1.82,0,0,1,28.14,77.43Zm-.31-3.69-1.63-.81-2.84,5.64,1.63.81a4.57,4.57,0,0,0,2.09.58,2.79,2.79,0,0,0,2.55-1.78C30.57,76.31,30,74.82,27.83,73.74Z" />
    <polyline id="Fill-36" class="cls-4"
      points="31.31 82.07 35.09 83.08 35.44 81.76 33.22 81.17 33.53 80 35.55 80.54 35.9 79.22 33.88 78.68 34.14 77.71 36.34 78.29 36.7 76.98 32.94 75.97 31.31 82.07" />
    <path id="Fill-37" class="cls-4"
      d="M40.57,82.42l-.44,0,.21-3.58.43,0a1.79,1.79,0,0,1-.2,3.58Zm0-5-1.82-.11-.35,6.31,1.81.1h.42c2.11,0,3.24-1,3.36-3a3.08,3.08,0,0,0-.67-2.3A3.78,3.78,0,0,0,40.62,77.47Z" />
    <path id="Fill-38" class="cls-4"
      d="M50.59,80.46l.2-1.65.86,1.42Zm-1-3.47-1.07,6.68,1.65-.35.22-1.42,2-.44.77,1.21,1.73-.37-3.74-5.65Z" />
    <polyline id="Fill-39" class="cls-4" points="55.59 80.25 56.14 81.77 57.66 81.22 57.11 79.7 55.59 80.25" />
    <path id="Fill-40" class="cls-4"
      d="M61.23,78.11l-.38.2-1.71-3.14.38-.21a1.72,1.72,0,0,1,.83-.22,1.74,1.74,0,0,1,1.53,1A1.72,1.72,0,0,1,61.23,78.11Zm-2.56-4.25-1.6.87,3,5.55,1.6-.87c2.1-1.13,2.65-2.64,1.66-4.48S60.77,72.72,58.67,73.86Z" />
    <polyline id="Fill-41" class="cls-4" points="64.54 75.85 65.47 77.18 66.79 76.26 65.87 74.93 64.54 75.85" />
    <polyline id="Fill-42" class="cls-4"
      points="67.06 67.77 66.78 70.25 68.17 70.44 68.28 69.41 71.3 72.46 72.44 71.33 68.01 66.83 67.06 67.77" />
    <path id="Fill-43" class="cls-4"
      d="M74.78,66.63a.64.64,0,0,1-.89.17.79.79,0,0,1-.26-.87c.45-.3.78-.34,1.07-.13a.57.57,0,0,1,.23.36A.63.63,0,0,1,74.78,66.63Zm-2.17-1.7a1.38,1.38,0,0,1-.66.26.43.43,0,0,1-.27-.08c-.31-.23-.15-.62,0-.8a.44.44,0,0,1,.38-.22.58.58,0,0,1,.33.12A.79.79,0,0,1,72.61,64.93Zm3-.46a1.77,1.77,0,0,0-1.78-.2,1.81,1.81,0,0,0-.69-1.44c-.79-.58-1.84-.25-2.61.79a1.82,1.82,0,0,0,.18,2.73,1.68,1.68,0,0,0,1.56.2A1.67,1.67,0,0,0,73,68.11a1.83,1.83,0,0,0,1.1.39,2.79,2.79,0,0,0,2.34-2.83A1.82,1.82,0,0,0,75.62,64.47Z" />
    <path id="Fill-44" class="cls-4"
      d="M78.42,60.69a.5.5,0,0,1-.48.3,1.1,1.1,0,0,1-.52-.14,1.06,1.06,0,0,1-.58-.54.46.46,0,0,1,0-.36.49.49,0,0,1,.48-.28,1.31,1.31,0,0,1,.57.15,1,1,0,0,1,.53.52A.43.43,0,0,1,78.42,60.69Zm.06-2.39a1.84,1.84,0,0,0-2.66.83,1.51,1.51,0,0,0-.18.86,1.14,1.14,0,0,1-.44-1.44,2.44,2.44,0,0,1,.61-.74l.22-.18-1.16-.83-.14.12A4,4,0,0,0,74,58a2.35,2.35,0,0,0-.18,1.82A4.15,4.15,0,0,0,76,61.93a4.24,4.24,0,0,0,1.83.53,1.92,1.92,0,0,0,1.8-1.19A2.05,2.05,0,0,0,78.48,58.3Z" />
    <path id="Fill-45" class="cls-4"
      d="M80.71,51.93a2,2,0,0,0-2.63,1.4,2.37,2.37,0,0,0-.08.31l-.74-.24.65-2.17-1.26-.37L75.57,54.5l3.49,1.12v-.31a3.57,3.57,0,0,1,.14-1c.09-.31.42-1,1.09-.85s.55,1,.49,1.22a2.86,2.86,0,0,1-.59,1l-.2.24,1.47.49.09-.16A6.35,6.35,0,0,0,82.12,55,2.66,2.66,0,0,0,82,53a2.11,2.11,0,0,0-1.33-1.06" />

    <g id="Group-49">
      <g class="cls-5">
        <path id="Fill-46" class="cls-4"
          d="M43.51,12.8A30.7,30.7,0,1,1,12.8,43.5,30.74,30.74,0,0,1,43.51,12.8ZM11.7,43.5A31.81,31.81,0,1,0,43.51,11.7,31.85,31.85,0,0,0,11.7,43.5Z" />
      </g>
      <g class="cls-6">
        <path id="Fill-48" class="cls-4"
          d="M43.51,85.87A42.37,42.37,0,1,1,85.88,43.5,42.42,42.42,0,0,1,43.51,85.87ZM43.51,0A43.5,43.5,0,1,0,87,43.5,43.55,43.55,0,0,0,43.51,0Z" />

        <a xlink:href="https://www.cornell.edu/">
          <circle cx="43.5" cy="43.5" r="43.5" fill="rgba(0,0,0,0)" />
        </a>
      </g>
    </g>
  </g>
</svg>
